G04 DipTrace 3.3.1.3*
G04 bottom_paste.gbr*
%MOIN*%
G04 #@! TF.FileFunction,Paste,Bot*
G04 #@! TF.Part,Single*
%ADD48R,0.062992X0.055118*%
%ADD50R,0.055118X0.062992*%
%ADD52R,0.070866X0.015748*%
%ADD56R,0.076772X0.208661*%
%ADD67R,0.047244X0.074803*%
%ADD69R,0.051181X0.043307*%
%ADD75R,0.043307X0.051181*%
%FSLAX26Y26*%
G04*
G70*
G90*
G75*
G01*
G04 BotPaste*
%LPD*%
D75*
X749606Y1003543D3*
X674803D3*
X1449606Y1678543D3*
X1524409D3*
X1724508Y1678642D3*
X1649705D3*
D69*
X1362106Y566043D3*
Y491240D3*
D75*
X1237008Y691142D3*
X1162205D3*
X1112106Y1003543D3*
X1186909D3*
D67*
X988875Y889274D3*
X835337D3*
D56*
X1674606Y816043D3*
X1523031D3*
D52*
X1955807Y1222244D3*
Y1272244D3*
Y1322244D3*
Y1372244D3*
X2168406D3*
Y1322244D3*
Y1272244D3*
Y1222244D3*
X1955807Y809744D3*
Y859744D3*
Y909744D3*
Y959744D3*
X2168406D3*
Y909744D3*
Y859744D3*
Y809744D3*
D50*
X849606Y1003543D3*
X959843D3*
X1537106Y1466043D3*
X1647343D3*
X1649606Y1366043D3*
X1539370D3*
D48*
X1537106Y1116043D3*
Y1226280D3*
D50*
X1849606Y1566043D3*
X1959843D3*
X1837106Y1066043D3*
X1947343D3*
X609843Y1441043D3*
X499606D3*
X1849606Y1466043D3*
X1959843D3*
D48*
X1842224Y835925D3*
Y946161D3*
D50*
X499606Y1178543D3*
X609843D3*
X501870Y1091043D3*
X612106D3*
D52*
X812106Y1103543D3*
Y1153543D3*
Y1203543D3*
Y1253543D3*
Y1303543D3*
Y1353543D3*
Y1403543D3*
Y1453543D3*
Y1503543D3*
Y1553543D3*
X1182185D3*
Y1503543D3*
Y1453543D3*
Y1403543D3*
Y1353543D3*
Y1303543D3*
Y1253543D3*
Y1203543D3*
Y1153543D3*
Y1103543D3*
M02*
