G04 DipTrace 3.3.1.3*
G04 bottom_mask.gbr*
%MOIN*%
G04 #@! TF.FileFunction,Soldermask,Bot*
G04 #@! TF.Part,Single*
%ADD34R,0.066929X0.066929*%
%ADD47R,0.07874X0.070866*%
%ADD49R,0.070866X0.07874*%
%ADD51R,0.086614X0.031496*%
%ADD53C,0.251969*%
%ADD55R,0.09252X0.224409*%
%ADD57C,0.074803*%
%ADD58R,0.074803X0.074803*%
%ADD59C,0.106299*%
%ADD61R,0.106299X0.106299*%
%ADD64C,0.066929*%
%ADD66R,0.062992X0.090551*%
%ADD68R,0.066929X0.059055*%
%ADD70C,0.070866*%
%ADD72R,0.070866X0.070866*%
%ADD74R,0.059055X0.066929*%
%ADD76R,0.106299X0.145669*%
%ADD78C,0.094488*%
%ADD81C,0.006176*%
%ADD82C,0.00772*%
%FSLAX26Y26*%
G04*
G70*
G90*
G75*
G01*
G04 BotMask*
%LPD*%
D78*
X1487106Y1566043D3*
X1685925D3*
X1585531D3*
X1487106Y995177D3*
X1683957D3*
D76*
X1355118Y1279331D3*
X1817570Y1275394D3*
D74*
X749606Y1003543D3*
X674803D3*
X1449606Y1678543D3*
X1524409D3*
X1724508Y1678642D3*
X1649705D3*
D72*
X1549606Y503550D3*
D70*
Y603550D3*
D68*
X1362106Y566043D3*
Y491240D3*
D74*
X1237008Y691142D3*
X1162205D3*
D72*
X1162106Y841043D3*
D70*
X1262106D3*
D74*
X1112106Y1003543D3*
X1186909D3*
D66*
X988875Y889274D3*
X835337D3*
D64*
X599606Y1553543D3*
D34*
X499606D3*
D64*
X599606Y1278543D3*
D34*
X499606D3*
D64*
X599606Y991043D3*
D34*
X499606D3*
D61*
X2049606Y541043D3*
D59*
X1852756D3*
D58*
X949606Y703543D3*
D57*
X849606Y603543D3*
Y503543D3*
Y703543D3*
X949606Y603543D3*
Y503543D3*
D61*
X2399606Y1478543D3*
D59*
Y1281693D3*
D61*
Y1081693D3*
D59*
Y884843D3*
D55*
X1674606Y816043D3*
X1523031D3*
D53*
X2401575Y1811024D3*
X551181Y551181D3*
X2401575D3*
D51*
X1955807Y1222244D3*
Y1272244D3*
Y1322244D3*
Y1372244D3*
X2168406D3*
Y1322244D3*
Y1272244D3*
Y1222244D3*
X1955807Y809744D3*
Y859744D3*
Y909744D3*
Y959744D3*
X2168406D3*
Y909744D3*
Y859744D3*
Y809744D3*
D49*
X849606Y1003543D3*
X959843D3*
X1537106Y1466043D3*
X1647343D3*
X1649606Y1366043D3*
X1539370D3*
D47*
X1537106Y1116043D3*
Y1226280D3*
D49*
X1849606Y1566043D3*
X1959843D3*
X1837106Y1066043D3*
X1947343D3*
X609843Y1441043D3*
X499606D3*
X1849606Y1466043D3*
X1959843D3*
D47*
X1842224Y835925D3*
Y946161D3*
D49*
X499606Y1178543D3*
X609843D3*
X501870Y1091043D3*
X612106D3*
D51*
X812106Y1103543D3*
Y1153543D3*
Y1203543D3*
Y1253543D3*
Y1303543D3*
Y1353543D3*
Y1403543D3*
Y1453543D3*
Y1503543D3*
Y1553543D3*
X1182185D3*
Y1503543D3*
Y1453543D3*
Y1403543D3*
Y1353543D3*
Y1303543D3*
Y1253543D3*
Y1203543D3*
Y1153543D3*
Y1103543D3*
D72*
X1164749Y475906D3*
D70*
X1239730Y538402D3*
X1164749Y600906D3*
X2135791Y1904141D2*
D81*
X2118591D1*
X2112843Y1906086D1*
X2110898Y1907987D1*
X2108997Y1911790D1*
Y1915637D1*
X2110898Y1919439D1*
X2112843Y1921385D1*
X2118591Y1923286D1*
X2135791D1*
Y1883094D1*
X2122394Y1904141D2*
X2108997Y1883094D1*
X2096645Y1898393D2*
X2073697D1*
Y1902239D1*
X2075599Y1906086D1*
X2077500Y1907987D1*
X2081347Y1909889D1*
X2087095D1*
X2090897Y1907987D1*
X2094744Y1904141D1*
X2096645Y1898393D1*
Y1894590D1*
X2094744Y1888842D1*
X2090897Y1885040D1*
X2087095Y1883094D1*
X2081347D1*
X2077500Y1885040D1*
X2073697Y1888842D1*
X2061346Y1909889D2*
X2049850Y1883094D1*
X2038398Y1909889D1*
X2024145Y1886941D2*
X2026047Y1884995D1*
X2024145Y1883094D1*
X2022200Y1884995D1*
X2024145Y1886941D1*
X2007903Y1909889D2*
X2009848Y1907943D1*
X2007903Y1906042D1*
X2006002Y1907943D1*
X2007903Y1909889D1*
Y1886941D2*
X2009848Y1884995D1*
X2007903Y1883094D1*
X2006002Y1884995D1*
X2007903Y1886941D1*
X1954770Y1915593D2*
X1950923Y1917538D1*
X1945175Y1923242D1*
Y1883094D1*
X1930922Y1886941D2*
X1932823Y1884995D1*
X1930922Y1883094D1*
X1928977Y1884995D1*
X1930922Y1886941D1*
X1905129Y1923242D2*
X1910877Y1921341D1*
X1914724Y1915593D1*
X1916625Y1906042D1*
Y1900294D1*
X1914724Y1890743D1*
X1910877Y1884995D1*
X1905129Y1883094D1*
X1901327D1*
X1895579Y1884995D1*
X1891776Y1890743D1*
X1889831Y1900294D1*
Y1906042D1*
X1891776Y1915593D1*
X1895579Y1921341D1*
X1901327Y1923242D1*
X1905129D1*
X1891776Y1915593D2*
X1914724Y1890743D1*
X1825201Y1933765D2*
X1829048Y1929963D1*
X1832850Y1924215D1*
X1836697Y1916565D1*
X1838598Y1906970D1*
Y1899321D1*
X1836697Y1889771D1*
X1832850Y1882121D1*
X1829048Y1876373D1*
X1825201Y1872571D1*
X1801354Y1923242D2*
X1807102Y1921341D1*
X1810948Y1915593D1*
X1812850Y1906042D1*
Y1900294D1*
X1810948Y1890743D1*
X1807102Y1884995D1*
X1801354Y1883094D1*
X1797551D1*
X1791803Y1884995D1*
X1788000Y1890743D1*
X1786055Y1900294D1*
Y1906042D1*
X1788000Y1915593D1*
X1791803Y1921341D1*
X1797551Y1923242D1*
X1801354D1*
X1788000Y1915593D2*
X1810948Y1890743D1*
X1754558Y1883094D2*
Y1923242D1*
X1773704Y1896491D1*
X1745008D1*
X1732656Y1883094D2*
X1705862Y1923242D1*
X1682014D2*
X1687762Y1921341D1*
X1691609Y1915593D1*
X1693510Y1906042D1*
Y1900294D1*
X1691609Y1890743D1*
X1687762Y1884995D1*
X1682014Y1883094D1*
X1678212D1*
X1672464Y1884995D1*
X1668661Y1890743D1*
X1666716Y1900294D1*
Y1906042D1*
X1668661Y1915593D1*
X1672464Y1921341D1*
X1678212Y1923242D1*
X1682014D1*
X1668661Y1915593D2*
X1691609Y1890743D1*
X1646715Y1883094D2*
X1627569Y1923242D1*
X1654364D1*
X1615218Y1883094D2*
X1588423Y1923242D1*
X1574126Y1913691D2*
Y1915593D1*
X1572225Y1919439D1*
X1570324Y1921341D1*
X1566477Y1923242D1*
X1558828D1*
X1555025Y1921341D1*
X1553124Y1919439D1*
X1551179Y1915593D1*
Y1911790D1*
X1553124Y1907943D1*
X1556927Y1902239D1*
X1576072Y1883094D1*
X1549277D1*
X1525430Y1923242D2*
X1531178Y1921341D1*
X1535025Y1915593D1*
X1536926Y1906042D1*
Y1900294D1*
X1535025Y1890743D1*
X1531178Y1884995D1*
X1525430Y1883094D1*
X1521627D1*
X1515879Y1884995D1*
X1512077Y1890743D1*
X1510131Y1900294D1*
Y1906042D1*
X1512077Y1915593D1*
X1515879Y1921341D1*
X1521627Y1923242D1*
X1525430D1*
X1512077Y1915593D2*
X1535025Y1890743D1*
X1497780Y1915593D2*
X1493933Y1917538D1*
X1488185Y1923242D1*
Y1883094D1*
X1450940Y1909889D2*
X1452886Y1904141D1*
X1456688Y1900294D1*
X1462436Y1898393D1*
X1464338D1*
X1470086Y1900294D1*
X1473888Y1904141D1*
X1475834Y1909889D1*
Y1911790D1*
X1473888Y1917538D1*
X1470086Y1921341D1*
X1464338Y1923242D1*
X1462436D1*
X1456688Y1921341D1*
X1452886Y1917538D1*
X1450940Y1909889D1*
Y1900294D1*
X1452886Y1890743D1*
X1456688Y1884995D1*
X1462436Y1883094D1*
X1466239D1*
X1471987Y1884995D1*
X1473888Y1888842D1*
X1438589Y1933765D2*
X1434742Y1929963D1*
X1430940Y1924215D1*
X1427093Y1916565D1*
X1425192Y1906970D1*
Y1899321D1*
X1427093Y1889771D1*
X1430940Y1882121D1*
X1434742Y1876373D1*
X1438589Y1872571D1*
X2121454Y1844894D2*
D82*
X2126207D1*
X2131015Y1842518D1*
X2133392Y1835333D1*
Y1794654D1*
X2140577Y1828148D2*
X2123830D1*
X2106015Y1844894D2*
Y1794654D1*
X2088143Y1828148D2*
X2073829Y1794654D1*
X2078582Y1785093D1*
X2083390Y1780284D1*
X2088143Y1777908D1*
X2090575D1*
X2059459Y1828148D2*
X2073829Y1794654D1*
X2032081Y1844839D2*
X2039211Y1842462D1*
X2041643Y1837709D1*
Y1832901D1*
X2039211Y1828148D1*
X2034458Y1825716D1*
X2024896Y1823339D1*
X2017711Y1820963D1*
X2012958Y1816154D1*
X2010581Y1811401D1*
Y1804216D1*
X2012958Y1799463D1*
X2015334Y1797031D1*
X2022519Y1794654D1*
X2032081D1*
X2039211Y1797031D1*
X2041643Y1799463D1*
X2044019Y1804216D1*
Y1811401D1*
X2041643Y1816154D1*
X2036834Y1820963D1*
X2029705Y1823339D1*
X2020143Y1825716D1*
X2015334Y1828148D1*
X2012958Y1832901D1*
Y1837709D1*
X2015334Y1842462D1*
X2022519Y1844839D1*
X2032081D1*
X1995142Y1828148D2*
Y1794654D1*
Y1813778D2*
X1992710Y1820963D1*
X1987957Y1825771D1*
X1983149Y1828148D1*
X1975963D1*
M02*
