G04 DipTrace 3.3.1.3*
G04 bottom.gbr*
%MOIN*%
G04 #@! TF.FileFunction,Copper,L2,Bot*
G04 #@! TF.Part,Single*
G04 #@! TA.AperFunction,Conductor*
%ADD15C,0.07874*%
%ADD16C,0.019685*%
%ADD17C,0.02126*%
%ADD18C,0.015748*%
%ADD19C,0.023622*%
%ADD20C,0.011811*%
%ADD21C,0.03937*%
G04 #@! TA.AperFunction,ComponentPad*
%ADD22C,0.086614*%
%ADD23R,0.098425X0.137795*%
%ADD24R,0.051181X0.059055*%
G04 #@! TA.AperFunction,ComponentPad*
%ADD25R,0.062992X0.062992*%
%ADD26C,0.062992*%
%ADD27R,0.059055X0.051181*%
%ADD29R,0.055118X0.082677*%
G04 #@! TA.AperFunction,ComponentPad*
%ADD30C,0.059055*%
%ADD31R,0.059055X0.059055*%
%ADD32R,0.098425X0.098425*%
%ADD33C,0.098425*%
%ADD34R,0.066929X0.066929*%
%ADD35C,0.066929*%
%ADD36R,0.084646X0.216535*%
G04 #@! TA.AperFunction,ComponentPad*
%ADD37C,0.244094*%
%ADD38R,0.07874X0.023622*%
%ADD39R,0.062992X0.070866*%
%ADD40R,0.070866X0.062992*%
G04 #@! TA.AperFunction,ViaPad*
%ADD41C,0.031496*%
%ADD42C,0.047244*%
%ADD81C,0.006176*%
%ADD82C,0.00772*%
%FSLAX26Y26*%
G04*
G70*
G90*
G75*
G01*
G04 Bottom*
%LPD*%
X1674606Y816043D2*
D16*
Y753543D1*
X1749606Y678543D1*
X1912106D1*
X2049606Y541043D1*
X1523031Y816043D2*
Y692618D1*
X1549606Y666043D1*
Y603543D1*
X1362106Y566043D2*
X1437106D1*
X1474606Y603543D1*
X1549606D1*
X1164749Y475906D2*
D17*
X1259469D1*
X1299606Y516043D1*
Y553543D1*
X1312106Y566043D1*
X1362106D1*
X1164749Y475906D2*
D18*
X1059469D1*
X1024606Y441043D1*
X787106D1*
X724606Y503543D1*
Y778543D1*
X662106Y841043D1*
X474606D1*
X437106Y878543D1*
Y1378543D1*
X499606Y1441043D1*
X959843Y1003543D2*
D16*
Y968307D1*
X988875Y939274D1*
Y889274D1*
X959843Y1003543D2*
X1112106D1*
X1182185Y1103543D2*
X1137106D1*
X1112106Y1078543D1*
Y1003543D1*
X1164749Y600906D2*
X1209469D1*
X1237008Y628445D1*
Y691142D1*
Y753445D1*
X1262106Y778543D1*
Y841043D1*
X1647343Y1466043D2*
X1649606D1*
X1549606Y1366043D1*
X1539370D1*
Y1228543D1*
X1537106Y1226280D1*
X1182185Y1103543D2*
X1362106D1*
X1484843Y1226280D1*
X1537106D1*
X1112106Y1003543D2*
Y953543D1*
X1149606Y916043D1*
X1237106D1*
X1262106Y891043D1*
Y841043D1*
X1449606Y1678543D2*
D18*
Y1603543D1*
X1487106Y1566043D1*
Y1516043D1*
X1537106Y1466043D1*
X1182185Y1503543D2*
X1287106D1*
X1724508Y1678642D2*
Y1604626D1*
X1685925Y1566043D1*
X1724606Y1527362D1*
Y1441043D1*
X1649606Y1366043D1*
X1182185Y1453543D2*
X1287106D1*
X1537106Y1116043D2*
Y1045177D1*
X1487106Y995177D1*
X1182185Y1553543D2*
X1249606D1*
X812106D2*
X749606D1*
X748031Y1555118D1*
X669291Y944882D2*
Y998031D1*
X674803Y1003543D1*
X1240157Y964567D2*
X1225886D1*
X1186909Y1003543D1*
X1524409Y1678543D2*
X1585531Y1678642D1*
X1649705D1*
X1585531Y1566043D2*
Y1678642D1*
X1162205Y691142D2*
Y747244D1*
X1161417Y748031D1*
X1362106Y491240D2*
X1416437D1*
X1417323Y492126D1*
X2049606Y1316043D2*
D15*
Y1266043D1*
Y1216043D1*
X1955807Y1272244D2*
D19*
X2043406D1*
D16*
X2049606Y1266043D1*
X1955807Y1222244D2*
D19*
X2043406D1*
D16*
X2049606Y1216043D1*
Y816043D2*
D15*
Y866043D1*
Y916043D1*
X1955807Y1322244D2*
D19*
X2043406D1*
X2049606Y1316043D1*
X1955807Y909744D2*
X2043307D1*
X2049606Y916043D1*
X1955807Y859744D2*
X2043307D1*
X2049606Y866043D1*
X1955807Y809744D2*
X2043307D1*
X2049606Y816043D1*
X1955807Y809744D2*
X1868406D1*
X1842224Y835925D1*
X1787106Y1466043D2*
D18*
X1849606D1*
X812106Y1453543D2*
D20*
X737106D1*
X674606Y1391043D1*
Y1243307D1*
X609843Y1178543D1*
X812106Y1403543D2*
X724606D1*
X699606Y1378543D1*
Y1178543D1*
X612106Y1091043D1*
X1182185Y1203543D2*
D18*
X1037106D1*
X1182185Y1253543D2*
X987106D1*
X1849606Y1566043D2*
Y1674016D1*
X1745079Y1778543D1*
X1374606D1*
X1349606Y1753543D1*
Y1428543D1*
X1324606Y1403543D1*
X1182185D1*
X1837106Y1066043D2*
X1887106Y1116043D1*
Y1141043D1*
X1837106Y1753543D2*
X1774606Y1816043D1*
X1362106D1*
X1162106Y1616043D1*
X1037106D1*
X924606Y1503543D1*
X812106D1*
X749606Y1003543D2*
X849606D1*
X812106Y1041043D1*
Y1103543D1*
X749606Y1003543D2*
Y841043D1*
X787106Y803543D1*
Y578543D1*
X812106Y553543D1*
D20*
X899606D1*
D18*
X949606Y503543D1*
X1182185Y1153543D2*
X1087106D1*
X599606Y1553543D2*
Y1451280D1*
X609843Y1441043D1*
X499606Y1178543D2*
D16*
X599606Y1278543D1*
X501870Y1091043D2*
Y1088780D1*
X599606Y991043D1*
X2168406Y1222244D2*
D19*
X2262106D1*
D15*
Y1272244D1*
Y1322244D1*
Y1372244D1*
D19*
X2168406D1*
Y1272244D2*
X2262106D1*
X2168406Y1322244D2*
X2262106D1*
X2399606Y1281693D2*
D15*
X2271555D1*
D21*
X2262106Y1272244D1*
X2168406Y809744D2*
D19*
X2243307D1*
D16*
X2262106Y828543D1*
D15*
Y878543D1*
D21*
Y909744D1*
D15*
Y959744D1*
D19*
X2168406D1*
Y859744D2*
X2262106D1*
D16*
Y828543D1*
X2168406Y909744D2*
D19*
X2262106D1*
X2399606Y884843D2*
D15*
X2268406D1*
D21*
X2262106Y878543D1*
X1959843Y1566043D2*
D18*
Y1466043D1*
Y1376280D1*
X1955807Y1372244D1*
Y959744D2*
X1855807D1*
X1842224Y946161D1*
X1955807Y959744D2*
Y1057579D1*
X1947343Y1066043D1*
X849606Y703543D2*
D16*
Y875005D1*
X835337Y889274D1*
D41*
X1837106Y1753543D3*
X1887106Y1141043D3*
X1087106Y1153543D3*
X1037106Y1203543D3*
X987106Y1253543D3*
X1287106Y1503543D3*
Y1453543D3*
X1249606Y1553543D3*
X748031Y1555118D3*
X669291Y944882D3*
X1240157Y964567D3*
X1161417Y748031D3*
X1417323Y492126D3*
D42*
X2049606Y1316043D3*
Y1266043D3*
Y1216043D3*
Y866043D3*
Y916043D3*
Y816043D3*
D41*
X1787106Y1466043D3*
D22*
X1487106Y1566043D3*
X1685925D3*
X1585531D3*
X1487106Y995177D3*
X1683957D3*
D23*
X1355118Y1279331D3*
X1817570Y1275394D3*
D24*
X749606Y1003543D3*
X674803D3*
X1449606Y1678543D3*
X1524409D3*
X1724508Y1678642D3*
X1649705D3*
D25*
X1549606Y503550D3*
D26*
Y603550D3*
D27*
X1362106Y566043D3*
Y491240D3*
D24*
X1237008Y691142D3*
X1162205D3*
D25*
X1162106Y841043D3*
D26*
X1262106D3*
D24*
X1112106Y1003543D3*
X1186909D3*
D29*
X988875Y889274D3*
X835337D3*
D30*
X599606Y1553543D3*
D31*
X499606D3*
D30*
X599606Y1278543D3*
D31*
X499606D3*
D30*
X599606Y991043D3*
D31*
X499606D3*
D32*
X2049606Y541043D3*
D33*
X1852756D3*
D34*
X949606Y703543D3*
D35*
X849606Y603543D3*
Y503543D3*
Y703543D3*
X949606Y603543D3*
Y503543D3*
D32*
X2399606Y1478543D3*
D33*
Y1281693D3*
D32*
Y1081693D3*
D33*
Y884843D3*
D36*
X1674606Y816043D3*
X1523031D3*
D37*
X2401575Y1811024D3*
X551181Y551181D3*
X2401575D3*
D38*
X1955807Y1222244D3*
Y1272244D3*
Y1322244D3*
Y1372244D3*
X2168406D3*
Y1322244D3*
Y1272244D3*
Y1222244D3*
X1955807Y809744D3*
Y859744D3*
Y909744D3*
Y959744D3*
X2168406D3*
Y909744D3*
Y859744D3*
Y809744D3*
D39*
X849606Y1003543D3*
X959843D3*
X1537106Y1466043D3*
X1647343D3*
X1649606Y1366043D3*
X1539370D3*
D40*
X1537106Y1116043D3*
Y1226280D3*
D39*
X1849606Y1566043D3*
X1959843D3*
X1837106Y1066043D3*
X1947343D3*
X609843Y1441043D3*
X499606D3*
X1849606Y1466043D3*
X1959843D3*
D40*
X1842224Y835925D3*
Y946161D3*
D39*
X499606Y1178543D3*
X609843D3*
X501870Y1091043D3*
X612106D3*
D38*
X812106Y1103543D3*
Y1153543D3*
Y1203543D3*
Y1253543D3*
Y1303543D3*
Y1353543D3*
Y1403543D3*
Y1453543D3*
Y1503543D3*
Y1553543D3*
X1182185D3*
Y1503543D3*
Y1453543D3*
Y1403543D3*
Y1353543D3*
Y1303543D3*
Y1253543D3*
Y1203543D3*
Y1153543D3*
Y1103543D3*
D25*
X1164749Y475906D3*
D26*
X1239730Y538402D3*
X1164749Y600906D3*
X2135791Y1904141D2*
D81*
X2118591D1*
X2112843Y1906086D1*
X2110898Y1907987D1*
X2108997Y1911790D1*
Y1915637D1*
X2110898Y1919439D1*
X2112843Y1921385D1*
X2118591Y1923286D1*
X2135791D1*
Y1883094D1*
X2122394Y1904141D2*
X2108997Y1883094D1*
X2096645Y1898393D2*
X2073697D1*
Y1902239D1*
X2075599Y1906086D1*
X2077500Y1907987D1*
X2081347Y1909889D1*
X2087095D1*
X2090897Y1907987D1*
X2094744Y1904141D1*
X2096645Y1898393D1*
Y1894590D1*
X2094744Y1888842D1*
X2090897Y1885040D1*
X2087095Y1883094D1*
X2081347D1*
X2077500Y1885040D1*
X2073697Y1888842D1*
X2061346Y1909889D2*
X2049850Y1883094D1*
X2038398Y1909889D1*
X2024145Y1886941D2*
X2026047Y1884995D1*
X2024145Y1883094D1*
X2022200Y1884995D1*
X2024145Y1886941D1*
X2007903Y1909889D2*
X2009848Y1907943D1*
X2007903Y1906042D1*
X2006002Y1907943D1*
X2007903Y1909889D1*
Y1886941D2*
X2009848Y1884995D1*
X2007903Y1883094D1*
X2006002Y1884995D1*
X2007903Y1886941D1*
X1954770Y1915593D2*
X1950923Y1917538D1*
X1945175Y1923242D1*
Y1883094D1*
X1930922Y1886941D2*
X1932823Y1884995D1*
X1930922Y1883094D1*
X1928977Y1884995D1*
X1930922Y1886941D1*
X1905129Y1923242D2*
X1910877Y1921341D1*
X1914724Y1915593D1*
X1916625Y1906042D1*
Y1900294D1*
X1914724Y1890743D1*
X1910877Y1884995D1*
X1905129Y1883094D1*
X1901327D1*
X1895579Y1884995D1*
X1891776Y1890743D1*
X1889831Y1900294D1*
Y1906042D1*
X1891776Y1915593D1*
X1895579Y1921341D1*
X1901327Y1923242D1*
X1905129D1*
X1891776Y1915593D2*
X1914724Y1890743D1*
X1825201Y1933765D2*
X1829048Y1929963D1*
X1832850Y1924215D1*
X1836697Y1916565D1*
X1838598Y1906970D1*
Y1899321D1*
X1836697Y1889771D1*
X1832850Y1882121D1*
X1829048Y1876373D1*
X1825201Y1872571D1*
X1801354Y1923242D2*
X1807102Y1921341D1*
X1810948Y1915593D1*
X1812850Y1906042D1*
Y1900294D1*
X1810948Y1890743D1*
X1807102Y1884995D1*
X1801354Y1883094D1*
X1797551D1*
X1791803Y1884995D1*
X1788000Y1890743D1*
X1786055Y1900294D1*
Y1906042D1*
X1788000Y1915593D1*
X1791803Y1921341D1*
X1797551Y1923242D1*
X1801354D1*
X1788000Y1915593D2*
X1810948Y1890743D1*
X1754558Y1883094D2*
Y1923242D1*
X1773704Y1896491D1*
X1745008D1*
X1732656Y1883094D2*
X1705862Y1923242D1*
X1682014D2*
X1687762Y1921341D1*
X1691609Y1915593D1*
X1693510Y1906042D1*
Y1900294D1*
X1691609Y1890743D1*
X1687762Y1884995D1*
X1682014Y1883094D1*
X1678212D1*
X1672464Y1884995D1*
X1668661Y1890743D1*
X1666716Y1900294D1*
Y1906042D1*
X1668661Y1915593D1*
X1672464Y1921341D1*
X1678212Y1923242D1*
X1682014D1*
X1668661Y1915593D2*
X1691609Y1890743D1*
X1646715Y1883094D2*
X1627569Y1923242D1*
X1654364D1*
X1615218Y1883094D2*
X1588423Y1923242D1*
X1574126Y1913691D2*
Y1915593D1*
X1572225Y1919439D1*
X1570324Y1921341D1*
X1566477Y1923242D1*
X1558828D1*
X1555025Y1921341D1*
X1553124Y1919439D1*
X1551179Y1915593D1*
Y1911790D1*
X1553124Y1907943D1*
X1556927Y1902239D1*
X1576072Y1883094D1*
X1549277D1*
X1525430Y1923242D2*
X1531178Y1921341D1*
X1535025Y1915593D1*
X1536926Y1906042D1*
Y1900294D1*
X1535025Y1890743D1*
X1531178Y1884995D1*
X1525430Y1883094D1*
X1521627D1*
X1515879Y1884995D1*
X1512077Y1890743D1*
X1510131Y1900294D1*
Y1906042D1*
X1512077Y1915593D1*
X1515879Y1921341D1*
X1521627Y1923242D1*
X1525430D1*
X1512077Y1915593D2*
X1535025Y1890743D1*
X1497780Y1915593D2*
X1493933Y1917538D1*
X1488185Y1923242D1*
Y1883094D1*
X1450940Y1909889D2*
X1452886Y1904141D1*
X1456688Y1900294D1*
X1462436Y1898393D1*
X1464338D1*
X1470086Y1900294D1*
X1473888Y1904141D1*
X1475834Y1909889D1*
Y1911790D1*
X1473888Y1917538D1*
X1470086Y1921341D1*
X1464338Y1923242D1*
X1462436D1*
X1456688Y1921341D1*
X1452886Y1917538D1*
X1450940Y1909889D1*
Y1900294D1*
X1452886Y1890743D1*
X1456688Y1884995D1*
X1462436Y1883094D1*
X1466239D1*
X1471987Y1884995D1*
X1473888Y1888842D1*
X1438589Y1933765D2*
X1434742Y1929963D1*
X1430940Y1924215D1*
X1427093Y1916565D1*
X1425192Y1906970D1*
Y1899321D1*
X1427093Y1889771D1*
X1430940Y1882121D1*
X1434742Y1876373D1*
X1438589Y1872571D1*
X2121454Y1844894D2*
D82*
X2126207D1*
X2131015Y1842518D1*
X2133392Y1835333D1*
Y1794654D1*
X2140577Y1828148D2*
X2123830D1*
X2106015Y1844894D2*
Y1794654D1*
X2088143Y1828148D2*
X2073829Y1794654D1*
X2078582Y1785093D1*
X2083390Y1780284D1*
X2088143Y1777908D1*
X2090575D1*
X2059459Y1828148D2*
X2073829Y1794654D1*
X2032081Y1844839D2*
X2039211Y1842462D1*
X2041643Y1837709D1*
Y1832901D1*
X2039211Y1828148D1*
X2034458Y1825716D1*
X2024896Y1823339D1*
X2017711Y1820963D1*
X2012958Y1816154D1*
X2010581Y1811401D1*
Y1804216D1*
X2012958Y1799463D1*
X2015334Y1797031D1*
X2022519Y1794654D1*
X2032081D1*
X2039211Y1797031D1*
X2041643Y1799463D1*
X2044019Y1804216D1*
Y1811401D1*
X2041643Y1816154D1*
X2036834Y1820963D1*
X2029705Y1823339D1*
X2020143Y1825716D1*
X2015334Y1828148D1*
X2012958Y1832901D1*
Y1837709D1*
X2015334Y1842462D1*
X2022519Y1844839D1*
X2032081D1*
X1995142Y1828148D2*
Y1794654D1*
Y1813778D2*
X1992710Y1820963D1*
X1987957Y1825771D1*
X1983149Y1828148D1*
X1975963D1*
M02*
