G04 DipTrace 3.3.1.3*
G04 bottom_assy.gbr*
%MOIN*%
G04 #@! TF.FileFunction,Legend,Bot*
G04 #@! TF.Part,Single*
%ADD10C,0.009843*%
%ADD19C,0.023622*%
%ADD28C,0.023631*%
%ADD79C,0.004632*%
%FSLAX26Y26*%
G04*
G70*
G90*
G75*
G01*
G04 BotSilk*
%LPD*%
X790966Y977972D2*
D10*
Y1029114D1*
X1408247Y1704114D2*
Y1652972D1*
X1765867Y1653071D2*
Y1704213D1*
X1424607Y547287D2*
G02X1424607Y547287I131250J0D01*
G01*
X1462118Y453522D2*
D19*
G03X1649596Y453522I93739J97848D01*
G01*
X1387677Y607403D2*
D10*
X1336535D1*
X1278367Y665571D2*
Y716713D1*
X1112106Y841043D2*
G02X1112106Y841043I100000J0D01*
G01*
X1162106Y928543D2*
D19*
G03X1162106Y753543I51563J-87500D01*
G01*
X1070747Y1029114D2*
D10*
Y977972D1*
X998717Y946363D2*
X825502D1*
X998717Y832188D2*
X825502D1*
D28*
X1038086Y889270D3*
X2148039Y687894D2*
D10*
X1754331D1*
Y392618D1*
X2148039D1*
Y687894D1*
Y634154D2*
X1754331D1*
X2148039Y673543D2*
X2167717D1*
Y634154D2*
X2148039D1*
X2167717Y673543D2*
Y634154D1*
X1970862Y541038D2*
G02X1970862Y541038I78750J0D01*
G01*
X1774008D2*
G02X1774008Y541038I78750J0D01*
G01*
X812113Y653561D2*
X887120D1*
X812113Y753544D2*
X887120D1*
X899621Y741074D2*
Y666032D1*
X799572Y741074D2*
Y666032D1*
X812113Y653561D1*
X799572Y741074D2*
X812113Y753544D1*
X887120D2*
X899621Y741074D1*
Y666032D2*
X887120Y653561D1*
X812113Y553541D2*
X887120D1*
X812113Y653561D2*
X887120D1*
X899621Y641054D2*
Y566048D1*
X799572Y641054D2*
Y566048D1*
X812113Y553541D1*
X799572Y641054D2*
X812113Y653561D1*
X887120D2*
X899621Y641054D1*
Y566048D2*
X887120Y553541D1*
X812113Y453521D2*
X887120D1*
X812113Y553541D2*
X887120D1*
X899621Y541034D2*
Y466028D1*
X799572Y541034D2*
Y466028D1*
X812113Y453521D1*
X799572Y541034D2*
X812113Y553541D1*
X887120D2*
X899621Y541034D1*
Y466028D2*
X887120Y453521D1*
X912082Y653561D2*
X987089D1*
X912082Y753544D2*
X987089D1*
X999590Y741074D2*
Y666032D1*
X899621Y741074D2*
Y666032D1*
X912082Y653561D1*
X899621Y741074D2*
X912082Y753544D1*
X987089D2*
X999590Y741074D1*
Y666032D2*
X987089Y653561D1*
X912082Y553541D2*
X987089D1*
X912082Y653561D2*
X987089D1*
X999590Y641054D2*
Y566048D1*
X899621Y641054D2*
Y566048D1*
X912082Y553541D1*
X899621Y641054D2*
X912082Y653561D1*
X987089D2*
X999590Y641054D1*
Y566048D2*
X987089Y553541D1*
X912082Y453521D2*
X987089D1*
X912082Y553541D2*
X987089D1*
X999590Y541034D2*
Y466028D1*
X899621Y541034D2*
Y466028D1*
X912082Y453521D1*
X899621Y541034D2*
X912082Y553541D1*
X987089D2*
X999590Y541034D1*
Y466028D2*
X987089Y453521D1*
G36*
X937124Y816043D2*
X974547D1*
Y778522D1*
X937124D1*
Y816043D1*
G37*
X2252756Y1576976D2*
D10*
X2548031D1*
Y1183268D1*
X2252756D1*
Y1576976D1*
X2306496D2*
Y1183268D1*
X2267106Y1576976D2*
Y1596654D1*
X2306496D2*
Y1576976D1*
X2267106Y1596654D2*
X2306496D1*
X2320876Y1478549D2*
G02X2320876Y1478549I78735J0D01*
G01*
Y1281695D2*
G02X2320876Y1281695I78735J0D01*
G01*
X2252756Y1180126D2*
X2548031D1*
Y786417D1*
X2252756D1*
Y1180126D1*
X2306496D2*
Y786417D1*
X2267106Y1180126D2*
Y1199803D1*
X2306496D2*
Y1180126D1*
X2267106Y1199803D2*
X2306496D1*
X2320876Y1081699D2*
G02X2320876Y1081699I78735J0D01*
G01*
Y884844D2*
G02X2320876Y884844I78735J0D01*
G01*
X1614575Y920370D2*
X1583063D1*
X1614575Y711717D2*
X1583063D1*
X2010918Y1198817D2*
Y1395671D1*
X2113294Y1198817D2*
Y1395671D1*
X2010918D2*
X2113294D1*
X2042412Y1198817D2*
X2010918D1*
X2081801D2*
X2113294D1*
X2042412D2*
G02X2081801Y1198817I19694J-9D01*
G01*
X2010918Y786317D2*
Y983171D1*
X2113294Y786317D2*
Y983171D1*
X2010918D2*
X2113294D1*
X2042412Y786317D2*
X2010918D1*
X2081801D2*
X2113294D1*
X2042412D2*
G02X2081801Y786317I19694J-9D01*
G01*
X892945Y1035008D2*
X916504D1*
X892945Y972079D2*
X916504D1*
X1580445Y1497508D2*
X1604004D1*
X1580445Y1434579D2*
X1604004D1*
X1606268Y1334579D2*
X1582709D1*
X1606268Y1397508D2*
X1582709D1*
X1505642Y1159382D2*
Y1182941D1*
X1568571Y1159382D2*
Y1182941D1*
X1892945Y1597508D2*
X1916504D1*
X1892945Y1534579D2*
X1916504D1*
X1880445Y1097508D2*
X1904004D1*
X1880445Y1034579D2*
X1904004D1*
X566504Y1409579D2*
X542945D1*
X566504Y1472508D2*
X542945D1*
X1892945Y1497508D2*
X1916504D1*
X1892945Y1434579D2*
X1916504D1*
X1810760Y879264D2*
Y902823D1*
X1873689Y879264D2*
Y902823D1*
X542945Y1210008D2*
X566504D1*
X542945Y1147079D2*
X566504D1*
X545209Y1122508D2*
X568768D1*
X545209Y1059579D2*
X568768D1*
X869187Y1076598D2*
Y1580488D1*
X1121154Y1076598D2*
Y1580488D1*
X869187D2*
X1121154D1*
X869187Y1076598D2*
X963664D1*
X1026678D2*
X1121154D1*
X963664D2*
G02X1026678Y1076598I31507J-64D01*
G01*
X1131967Y623580D2*
G02X1131967Y453220I45279J-85180D01*
G01*
Y455786D2*
Y621014D1*
X725531Y1073965D2*
D79*
X726956Y1076817D1*
X729842Y1079702D1*
X732693Y1081128D1*
X738430D1*
X741316Y1079702D1*
X744167Y1076817D1*
X745627Y1073965D1*
X747052Y1069654D1*
Y1062458D1*
X745627Y1058180D1*
X744167Y1055295D1*
X741316Y1052443D1*
X738430Y1050984D1*
X732693D1*
X729842Y1052443D1*
X726956Y1055295D1*
X725531Y1058180D1*
X716267Y1075358D2*
X713382Y1076817D1*
X709071Y1081095D1*
Y1050984D1*
X1478515Y1748965D2*
X1479941Y1751817D1*
X1482826Y1754702D1*
X1485678Y1756128D1*
X1491415D1*
X1494300Y1754702D1*
X1497151Y1751817D1*
X1498611Y1748965D1*
X1500037Y1744654D1*
Y1737458D1*
X1498611Y1733180D1*
X1497151Y1730295D1*
X1494300Y1727443D1*
X1491415Y1725984D1*
X1485678D1*
X1482826Y1727443D1*
X1479941Y1730295D1*
X1478515Y1733180D1*
X1467792Y1748932D2*
Y1750358D1*
X1466366Y1753243D1*
X1464940Y1754669D1*
X1462055Y1756095D1*
X1456318D1*
X1453466Y1754669D1*
X1452040Y1753243D1*
X1450581Y1750358D1*
Y1747506D1*
X1452040Y1744621D1*
X1454892Y1740343D1*
X1469251Y1725984D1*
X1449155D1*
X1694382Y1749064D2*
X1695808Y1751915D1*
X1698693Y1754801D1*
X1701545Y1756226D1*
X1707282D1*
X1710167Y1754801D1*
X1713019Y1751915D1*
X1714478Y1749064D1*
X1715904Y1744753D1*
Y1737556D1*
X1714478Y1733279D1*
X1713019Y1730394D1*
X1710167Y1727542D1*
X1707282Y1726082D1*
X1701545D1*
X1698693Y1727542D1*
X1695808Y1730394D1*
X1694382Y1733279D1*
X1682233Y1756193D2*
X1666482D1*
X1675071Y1744719D1*
X1670759D1*
X1667908Y1743293D1*
X1666482Y1741867D1*
X1665023Y1737556D1*
Y1734705D1*
X1666482Y1730394D1*
X1669334Y1727508D1*
X1673645Y1726082D1*
X1677956D1*
X1682233Y1727508D1*
X1683659Y1728968D1*
X1685119Y1731819D1*
X1735489Y565334D2*
X1736915Y568186D1*
X1739800Y571071D1*
X1742652Y572497D1*
X1748389D1*
X1751274Y571071D1*
X1754126Y568186D1*
X1755585Y565334D1*
X1757011Y561023D1*
Y553827D1*
X1755585Y549549D1*
X1754126Y546664D1*
X1751274Y543812D1*
X1748389Y542353D1*
X1742652D1*
X1739800Y543812D1*
X1736915Y546664D1*
X1735489Y549549D1*
X1711866Y542353D2*
Y572464D1*
X1726225Y552401D1*
X1704703D1*
X1361498Y648297D2*
X1362923Y651149D1*
X1365809Y654034D1*
X1368660Y655460D1*
X1374397D1*
X1377283Y654034D1*
X1380134Y651149D1*
X1381594Y648297D1*
X1383019Y643986D1*
Y636790D1*
X1381594Y632512D1*
X1380134Y629627D1*
X1377283Y626775D1*
X1374397Y625316D1*
X1368660D1*
X1365809Y626775D1*
X1362923Y629627D1*
X1361498Y632512D1*
X1335023Y655427D2*
X1349349D1*
X1350775Y642527D1*
X1349349Y643953D1*
X1345038Y645412D1*
X1340760D1*
X1336449Y643953D1*
X1333564Y641101D1*
X1332138Y636790D1*
Y633938D1*
X1333564Y629627D1*
X1336449Y626742D1*
X1340760Y625316D1*
X1345038D1*
X1349349Y626742D1*
X1350775Y628201D1*
X1352234Y631053D1*
X1323180Y694940D2*
X1324606Y697792D1*
X1327491Y700677D1*
X1330343Y702103D1*
X1336080D1*
X1338965Y700677D1*
X1341817Y697792D1*
X1343276Y694940D1*
X1344702Y690629D1*
Y683433D1*
X1343276Y679155D1*
X1341817Y676270D1*
X1338965Y673418D1*
X1336080Y671959D1*
X1330343D1*
X1327491Y673418D1*
X1324606Y676270D1*
X1323180Y679155D1*
X1296706Y697792D2*
X1298132Y700644D1*
X1302443Y702070D1*
X1305294D1*
X1309605Y700644D1*
X1312491Y696333D1*
X1313917Y689170D1*
Y682007D1*
X1312491Y676270D1*
X1309605Y673385D1*
X1305294Y671959D1*
X1303869D1*
X1299591Y673385D1*
X1296706Y676270D1*
X1295280Y680581D1*
Y682007D1*
X1296706Y686318D1*
X1299591Y689170D1*
X1303869Y690596D1*
X1305294D1*
X1309605Y689170D1*
X1312491Y686318D1*
X1313917Y682007D1*
X1366025Y852814D2*
X1367451Y855666D1*
X1370336Y858551D1*
X1373188Y859977D1*
X1378925D1*
X1381810Y858551D1*
X1384662Y855666D1*
X1386121Y852814D1*
X1387547Y848503D1*
Y841307D1*
X1386121Y837029D1*
X1384662Y834144D1*
X1381810Y831292D1*
X1378925Y829833D1*
X1373188D1*
X1370336Y831292D1*
X1367451Y834144D1*
X1366025Y837029D1*
X1351025Y829833D2*
X1336666Y859944D1*
X1356762D1*
X1258026Y1019842D2*
X1259452Y1022694D1*
X1262337Y1025579D1*
X1265189Y1027005D1*
X1270925D1*
X1273811Y1025579D1*
X1276662Y1022694D1*
X1278122Y1019842D1*
X1279548Y1015531D1*
Y1008335D1*
X1278122Y1004057D1*
X1276662Y1001172D1*
X1273811Y998320D1*
X1270925Y996861D1*
X1265189D1*
X1262337Y998320D1*
X1259452Y1001172D1*
X1258026Y1004057D1*
X1241599Y1026972D2*
X1245877Y1025546D1*
X1247336Y1022694D1*
Y1019809D1*
X1245877Y1016957D1*
X1243025Y1015498D1*
X1237288Y1014072D1*
X1232977Y1012646D1*
X1230125Y1009761D1*
X1228699Y1006909D1*
Y1002598D1*
X1230125Y999746D1*
X1231551Y998287D1*
X1235862Y996861D1*
X1241599D1*
X1245877Y998287D1*
X1247336Y999746D1*
X1248762Y1002598D1*
Y1006909D1*
X1247336Y1009761D1*
X1244451Y1012646D1*
X1240173Y1014072D1*
X1234436Y1015498D1*
X1231551Y1016957D1*
X1230125Y1019809D1*
Y1022694D1*
X1231551Y1025546D1*
X1235862Y1026972D1*
X1241599D1*
X1084618Y940297D2*
Y910153D1*
X1074570D1*
X1070259Y911612D1*
X1067374Y914464D1*
X1065948Y917349D1*
X1064522Y921627D1*
Y928823D1*
X1065948Y933134D1*
X1067374Y935986D1*
X1070259Y938871D1*
X1074570Y940297D1*
X1084618D1*
X1055258Y934527D2*
X1052373Y935986D1*
X1048062Y940264D1*
Y910153D1*
X1962074Y731828D2*
Y708880D1*
X1963500Y704569D1*
X1964959Y703143D1*
X1967811Y701684D1*
X1970696D1*
X1973548Y703143D1*
X1974974Y704569D1*
X1976433Y708880D1*
Y711732D1*
X1952810Y726057D2*
X1949925Y727517D1*
X1945614Y731794D1*
Y701684D1*
X910206Y809977D2*
Y787029D1*
X911632Y782718D1*
X913091Y781292D1*
X915943Y779833D1*
X918828D1*
X921680Y781292D1*
X923106Y782718D1*
X924565Y787029D1*
Y789881D1*
X899484Y802781D2*
Y804207D1*
X898058Y807092D1*
X896632Y808518D1*
X893747Y809944D1*
X888010D1*
X885158Y808518D1*
X883732Y807092D1*
X882273Y804207D1*
Y801355D1*
X883732Y798470D1*
X886584Y794192D1*
X900943Y779833D1*
X880847D1*
X2407894Y1640587D2*
Y1617639D1*
X2409320Y1613328D1*
X2410779Y1611903D1*
X2413631Y1610443D1*
X2416516D1*
X2419368Y1611903D1*
X2420794Y1613328D1*
X2422253Y1617639D1*
Y1620491D1*
X2395745Y1640554D2*
X2379994D1*
X2388582Y1629080D1*
X2384271D1*
X2381419Y1627654D1*
X2379994Y1626228D1*
X2378534Y1621917D1*
Y1619065D1*
X2379994Y1614754D1*
X2382845Y1611869D1*
X2387156Y1610443D1*
X2391467D1*
X2395745Y1611869D1*
X2397171Y1613328D1*
X2398630Y1616180D1*
X2408607Y1243737D2*
Y1220789D1*
X2410033Y1216478D1*
X2411492Y1215052D1*
X2414344Y1213593D1*
X2417229D1*
X2420081Y1215052D1*
X2421507Y1216478D1*
X2422966Y1220789D1*
Y1223641D1*
X2384984Y1213593D2*
Y1243704D1*
X2399343Y1223641D1*
X2377821D1*
X1453154Y843245D2*
Y813101D1*
X1435943D1*
X1426680Y837475D2*
X1423795Y838934D1*
X1419484Y843212D1*
Y813101D1*
X2135705Y1452105D2*
X2138557Y1450712D1*
X2141442Y1447827D1*
X2142868Y1444942D1*
X2144327Y1440631D1*
Y1433468D1*
X2142868Y1429157D1*
X2141442Y1426305D1*
X2138557Y1423420D1*
X2135705Y1421994D1*
X2129968D1*
X2127083Y1423420D1*
X2124231Y1426305D1*
X2122805Y1429157D1*
X2121346Y1433468D1*
Y1440631D1*
X2122805Y1444942D1*
X2124231Y1447827D1*
X2127083Y1450712D1*
X2129968Y1452105D1*
X2135705D1*
X2131394Y1427731D2*
X2122805Y1419109D1*
X2112082Y1446335D2*
X2109197Y1447794D1*
X2104886Y1452072D1*
Y1421961D1*
X2142155Y1039605D2*
X2145006Y1038212D1*
X2147892Y1035327D1*
X2149317Y1032442D1*
X2150777Y1028131D1*
Y1020968D1*
X2149317Y1016657D1*
X2147892Y1013805D1*
X2145006Y1010920D1*
X2142155Y1009494D1*
X2136418D1*
X2133533Y1010920D1*
X2130681Y1013805D1*
X2129255Y1016657D1*
X2127796Y1020968D1*
Y1028131D1*
X2129255Y1032442D1*
X2130681Y1035327D1*
X2133533Y1038212D1*
X2136418Y1039605D1*
X2142155D1*
X2137844Y1015231D2*
X2129255Y1006609D1*
X2117073Y1032409D2*
Y1033835D1*
X2115647Y1036720D1*
X2114221Y1038146D1*
X2111336Y1039572D1*
X2105599D1*
X2102747Y1038146D1*
X2101321Y1036720D1*
X2099862Y1033835D1*
Y1030983D1*
X2101321Y1028098D1*
X2104173Y1023820D1*
X2118532Y1009461D1*
X2098436D1*
X1035502Y1006051D2*
X1022602D1*
X1018291Y1007510D1*
X1016832Y1008936D1*
X1015406Y1011788D1*
Y1014673D1*
X1016832Y1017525D1*
X1018291Y1018984D1*
X1022602Y1020410D1*
X1035502D1*
Y990266D1*
X1025454Y1006051D2*
X1015406Y990266D1*
X1006143Y1014640D2*
X1003258Y1016099D1*
X998947Y1020377D1*
Y990266D1*
X1741952Y1468551D2*
X1729052D1*
X1724741Y1470010D1*
X1723282Y1471436D1*
X1721856Y1474288D1*
Y1477173D1*
X1723282Y1480025D1*
X1724741Y1481484D1*
X1729052Y1482910D1*
X1741952D1*
Y1452766D1*
X1731904Y1468551D2*
X1721856Y1452766D1*
X1711134Y1475714D2*
Y1477140D1*
X1709708Y1480025D1*
X1708282Y1481451D1*
X1705397Y1482877D1*
X1699660D1*
X1696808Y1481451D1*
X1695382Y1480025D1*
X1693923Y1477140D1*
Y1474288D1*
X1695382Y1471403D1*
X1698234Y1467125D1*
X1712593Y1452766D1*
X1692497D1*
X1744216Y1368551D2*
X1731316D1*
X1727005Y1370010D1*
X1725546Y1371436D1*
X1724120Y1374288D1*
Y1377173D1*
X1725546Y1380025D1*
X1727005Y1381484D1*
X1731316Y1382910D1*
X1744216D1*
Y1352766D1*
X1734168Y1368551D2*
X1724120Y1352766D1*
X1711971Y1382877D2*
X1696220D1*
X1704808Y1371403D1*
X1700497D1*
X1697645Y1369977D1*
X1696220Y1368551D1*
X1694760Y1364240D1*
Y1361388D1*
X1696220Y1357077D1*
X1699071Y1354192D1*
X1703382Y1352766D1*
X1707693D1*
X1711971Y1354192D1*
X1713397Y1355651D1*
X1714856Y1358503D1*
X1562547Y1287350D2*
X1549647D1*
X1545336Y1288810D1*
X1543877Y1290235D1*
X1542451Y1293087D1*
Y1295972D1*
X1543877Y1298824D1*
X1545336Y1300283D1*
X1549647Y1301709D1*
X1562547D1*
Y1271565D1*
X1552499Y1287350D2*
X1542451Y1271565D1*
X1518828D2*
Y1301676D1*
X1533188Y1281613D1*
X1511666D1*
X2066952Y1568551D2*
X2054052D1*
X2049741Y1570010D1*
X2048282Y1571436D1*
X2046856Y1574288D1*
Y1577173D1*
X2048282Y1580025D1*
X2049741Y1581484D1*
X2054052Y1582910D1*
X2066952D1*
Y1552766D1*
X2056904Y1568551D2*
X2046856Y1552766D1*
X2020382Y1582877D2*
X2034708D1*
X2036134Y1569977D1*
X2034708Y1571403D1*
X2030397Y1572862D1*
X2026119D1*
X2021808Y1571403D1*
X2018923Y1568551D1*
X2017497Y1564240D1*
Y1561388D1*
X2018923Y1557077D1*
X2021808Y1554192D1*
X2026119Y1552766D1*
X2030397D1*
X2034708Y1554192D1*
X2036134Y1555651D1*
X2037593Y1558503D1*
X2041223Y1068551D2*
X2028323D1*
X2024012Y1070010D1*
X2022553Y1071436D1*
X2021127Y1074288D1*
Y1077173D1*
X2022553Y1080025D1*
X2024012Y1081484D1*
X2028323Y1082910D1*
X2041223D1*
Y1052766D1*
X2031175Y1068551D2*
X2021127Y1052766D1*
X1994652Y1078599D2*
X1996078Y1081451D1*
X2000389Y1082877D1*
X2003241D1*
X2007552Y1081451D1*
X2010437Y1077140D1*
X2011863Y1069977D1*
Y1062814D1*
X2010437Y1057077D1*
X2007552Y1054192D1*
X2003241Y1052766D1*
X2001815D1*
X1997537Y1054192D1*
X1994652Y1057077D1*
X1993226Y1061388D1*
Y1062814D1*
X1994652Y1067125D1*
X1997537Y1069977D1*
X2001815Y1071403D1*
X2003241D1*
X2007552Y1069977D1*
X2010437Y1067125D1*
X2011863Y1062814D1*
X716952Y1443551D2*
X704052D1*
X699741Y1445010D1*
X698282Y1446436D1*
X696856Y1449288D1*
Y1452173D1*
X698282Y1455025D1*
X699741Y1456484D1*
X704052Y1457910D1*
X716952D1*
Y1427766D1*
X706904Y1443551D2*
X696856Y1427766D1*
X681856D2*
X667497Y1457877D1*
X687593D1*
X2066936Y1468551D2*
X2054036D1*
X2049725Y1470010D1*
X2048266Y1471436D1*
X2046840Y1474288D1*
Y1477173D1*
X2048266Y1480025D1*
X2049725Y1481484D1*
X2054036Y1482910D1*
X2066936D1*
Y1452766D1*
X2056888Y1468551D2*
X2046840Y1452766D1*
X2030413Y1482877D2*
X2034691Y1481451D1*
X2036150Y1478599D1*
Y1475714D1*
X2034691Y1472862D1*
X2031839Y1471403D1*
X2026102Y1469977D1*
X2021791Y1468551D1*
X2018939Y1465666D1*
X2017513Y1462814D1*
Y1458503D1*
X2018939Y1455651D1*
X2020365Y1454192D1*
X2024676Y1452766D1*
X2030413D1*
X2034691Y1454192D1*
X2036150Y1455651D1*
X2037576Y1458503D1*
Y1462814D1*
X2036150Y1465666D1*
X2033265Y1468551D1*
X2028987Y1469977D1*
X2023250Y1471403D1*
X2020365Y1472862D1*
X2018939Y1475714D1*
Y1478599D1*
X2020365Y1481451D1*
X2024676Y1482877D1*
X2030413D1*
X1991239Y944732D2*
X1978339D1*
X1974028Y946191D1*
X1972569Y947617D1*
X1971143Y950469D1*
Y953354D1*
X1972569Y956206D1*
X1974028Y957665D1*
X1978339Y959091D1*
X1991239D1*
Y928947D1*
X1981191Y944732D2*
X1971143Y928947D1*
X1943210Y949043D2*
X1944669Y944732D1*
X1947521Y941847D1*
X1951832Y940421D1*
X1953258D1*
X1957569Y941847D1*
X1960421Y944732D1*
X1961880Y949043D1*
Y950469D1*
X1960421Y954780D1*
X1957569Y957632D1*
X1953258Y959058D1*
X1951832D1*
X1947521Y957632D1*
X1944669Y954780D1*
X1943210Y949043D1*
Y941847D1*
X1944669Y934684D1*
X1947521Y930373D1*
X1951832Y928947D1*
X1954684D1*
X1958995Y930373D1*
X1960421Y933258D1*
X727249Y1181937D2*
X714349D1*
X710038Y1183396D1*
X708579Y1184822D1*
X707153Y1187674D1*
Y1190559D1*
X708579Y1193411D1*
X710038Y1194870D1*
X714349Y1196296D1*
X727249D1*
Y1166152D1*
X717201Y1181937D2*
X707153Y1166152D1*
X697889Y1190526D2*
X695004Y1191985D1*
X690693Y1196263D1*
Y1166152D1*
X672808Y1196263D2*
X677119Y1194837D1*
X680004Y1190526D1*
X681430Y1183363D1*
Y1179052D1*
X680004Y1171889D1*
X677119Y1167578D1*
X672808Y1166152D1*
X669956D1*
X665645Y1167578D1*
X662793Y1171889D1*
X661334Y1179052D1*
Y1183363D1*
X662793Y1190526D1*
X665645Y1194837D1*
X669956Y1196263D1*
X672808D1*
X662793Y1190526D2*
X680004Y1171889D1*
X723063Y1094437D2*
X710163D1*
X705852Y1095896D1*
X704393Y1097322D1*
X702967Y1100174D1*
Y1103059D1*
X704393Y1105911D1*
X705852Y1107370D1*
X710163Y1108796D1*
X723063D1*
Y1078652D1*
X713015Y1094437D2*
X702967Y1078652D1*
X693703Y1103026D2*
X690818Y1104485D1*
X686507Y1108763D1*
Y1078652D1*
X677244Y1103026D2*
X674358Y1104485D1*
X670047Y1108763D1*
Y1078652D1*
X1015423Y1624422D2*
Y1602900D1*
X1013998Y1598589D1*
X1011112Y1595737D1*
X1006801Y1594278D1*
X1003950D1*
X999639Y1595737D1*
X996753Y1598589D1*
X995327Y1602900D1*
Y1624422D1*
X986064Y1618652D2*
X983179Y1620111D1*
X978868Y1624389D1*
Y1594278D1*
X1315068Y641301D2*
Y619779D1*
X1313642Y615468D1*
X1310757Y612616D1*
X1306446Y611157D1*
X1303594D1*
X1299283Y612616D1*
X1296398Y615468D1*
X1294972Y619779D1*
Y641301D1*
X1284249Y634105D2*
Y635531D1*
X1282823Y638416D1*
X1281397Y639842D1*
X1278512Y641268D1*
X1272775D1*
X1269923Y639842D1*
X1268497Y638416D1*
X1267038Y635531D1*
Y632679D1*
X1268497Y629794D1*
X1271349Y625516D1*
X1285708Y611157D1*
X1265612D1*
X1053922Y719474D2*
Y689330D1*
X1042448Y719474D1*
X1030974Y689330D1*
Y719474D1*
X1063185Y689330D2*
Y719474D1*
X722888Y688460D2*
X734362Y718604D1*
X745835Y688460D1*
X776621Y695623D2*
X775195Y692771D1*
X772310Y689886D1*
X769458Y688460D1*
X763721D1*
X760836Y689886D1*
X757984Y692771D1*
X756525Y695623D1*
X755099Y699934D1*
Y707130D1*
X756525Y711408D1*
X757984Y714293D1*
X760836Y717145D1*
X763721Y718604D1*
X769458D1*
X772310Y717145D1*
X775195Y714293D1*
X776621Y711408D1*
Y707130D1*
X769458D1*
X1044941Y593658D2*
X1042089Y590772D1*
X1037778Y589347D1*
X1032041D1*
X1027730Y590772D1*
X1024845Y593658D1*
Y596509D1*
X1026304Y599395D1*
X1027730Y600820D1*
X1030582Y602246D1*
X1039204Y605131D1*
X1042089Y606557D1*
X1043515Y608017D1*
X1044941Y610868D1*
Y615179D1*
X1042089Y618031D1*
X1037778Y619490D1*
X1032041D1*
X1027730Y618031D1*
X1024845Y615179D1*
X1075726Y596509D2*
X1074300Y593657D1*
X1071415Y590772D1*
X1068563Y589346D1*
X1062826D1*
X1059941Y590772D1*
X1057089Y593658D1*
X1055630Y596509D1*
X1054204Y600820D1*
Y608017D1*
X1055630Y612294D1*
X1057090Y615179D1*
X1059941Y618031D1*
X1062827Y619491D1*
X1068563D1*
X1071415Y618031D1*
X1074300Y615179D1*
X1075726Y612294D1*
X743448Y619490D2*
Y589347D1*
X731974Y619490D1*
X720500Y589347D1*
Y619490D1*
X761333Y589346D2*
X758448Y590772D1*
X755596Y593658D1*
X754137Y596509D1*
X752711Y600820D1*
Y608017D1*
X754137Y612294D1*
X755596Y615179D1*
X758448Y618031D1*
X761333Y619491D1*
X767070D1*
X769922Y618031D1*
X772807Y615179D1*
X774233Y612294D1*
X775659Y608016D1*
Y600820D1*
X774233Y596509D1*
X772807Y593657D1*
X769922Y590772D1*
X767070Y589346D1*
X761333D1*
X1023373Y491215D2*
X1036273D1*
X1040584Y489756D1*
X1042043Y488330D1*
X1043469Y485478D1*
Y482593D1*
X1042043Y479741D1*
X1040584Y478282D1*
X1036273Y476856D1*
X1023373D1*
Y507000D1*
X1033421Y491215D2*
X1043469Y507000D1*
X1071369Y476856D2*
X1052732D1*
Y507000D1*
X1071369D1*
X1052732Y491215D2*
X1064206D1*
X1100729Y481167D2*
X1097877Y478282D1*
X1093566Y476856D1*
X1087829D1*
X1083518Y478282D1*
X1080633Y481167D1*
Y484019D1*
X1082092Y486904D1*
X1083518Y488330D1*
X1086370Y489756D1*
X1094992Y492641D1*
X1097877Y494067D1*
X1099303Y495526D1*
X1100729Y498378D1*
Y502689D1*
X1097877Y505541D1*
X1093566Y507000D1*
X1087829D1*
X1083518Y505541D1*
X1080633Y502689D1*
X1023373Y468997D2*
X1091465Y468996D1*
X716940Y496526D2*
X715514Y493674D1*
X712629Y490789D1*
X709777Y489363D1*
X704040D1*
X701155Y490789D1*
X698303Y493674D1*
X696844Y496526D1*
X695418Y500837D1*
Y508033D1*
X696844Y512311D1*
X698303Y515196D1*
X701155Y518048D1*
X704040Y519507D1*
X709777D1*
X712629Y518048D1*
X715514Y515196D1*
X716940Y512311D1*
Y508033D1*
X709777D1*
X746300Y489363D2*
Y519507D1*
X726204Y489363D1*
Y519507D1*
X755563Y489363D2*
Y519507D1*
X765611D1*
X769922Y518048D1*
X772807Y515196D1*
X774233Y512311D1*
X775659Y508033D1*
Y500837D1*
X774233Y496526D1*
X772807Y493674D1*
X769922Y490789D1*
X765611Y489363D1*
X755563D1*
M02*
