M48
INCH
T01C0.0118
T02C0.0197
T03C0.0236
T04C0.0315
T05C0.035
T06C0.0394
T07C0.0472
T08C0.126
%
T01
X+018371Y+017535
X+017871Y+014660
X+018871Y+011410
X+012402Y+009646
X+011614Y+007480
X+014173Y+004921
X+010871Y+011535
X+010371Y+012035
X+009871Y+012535
X+012871Y+014535
X+012871Y+015035
X+012496Y+015535
X+007480Y+015551
X+006693Y+009449
T02
X+020496Y+013160
X+020496Y+012660
X+020496Y+012160
X+020496Y+009160
X+020496Y+008660
X+020496Y+008160
T03
X+015496Y+005035
X+015496Y+006035
X+012621Y+008410
X+011621Y+008410
T04
X+011647Y+004759
X+012397Y+005384
X+011647Y+006009
T05
X+005996Y+015535
X+004996Y+015535
X+004996Y+012785
X+005996Y+012785
X+005996Y+009910
X+004996Y+009910
T06
X+013551Y+012400G85X+013551Y+013187
X+018176Y+012360G85X+018176Y+013148
X+009496Y+007035
X+008496Y+007035
X+008496Y+006035
X+009496Y+006035
X+009496Y+005035
X+008496Y+005035
T07
X+014871Y+015660
X+015855Y+015660
X+016859Y+015660
X+016840Y+009952
X+014871Y+009952
X+018528Y+005410
X+020496Y+005410
X+023996Y+008848
X+023996Y+010817
X+023996Y+012817
X+023996Y+014785
T08
X+024016Y+018110
X+024016Y+005512
X+005512Y+005512
T00
M30
