G04 DipTrace 3.3.1.3*
G04 top.gbr*
%MOIN*%
G04 #@! TF.FileFunction,Copper,L1,Top*
G04 #@! TF.Part,Single*
G04 #@! TA.AperFunction,Conductor*
%ADD14C,0.059055*%
%ADD15C,0.07874*%
G04 #@! TA.AperFunction,CopperBalancing*
%ADD18C,0.015748*%
%ADD20C,0.011811*%
G04 #@! TA.AperFunction,ComponentPad*
%ADD22C,0.086614*%
%ADD23R,0.098425X0.137795*%
%ADD25R,0.062992X0.062992*%
%ADD26C,0.062992*%
%ADD30C,0.059055*%
%ADD31R,0.059055X0.059055*%
%ADD32R,0.098425X0.098425*%
%ADD33C,0.098425*%
%ADD34R,0.066929X0.066929*%
%ADD35C,0.066929*%
%ADD37C,0.244094*%
G04 #@! TA.AperFunction,ViaPad*
%ADD41C,0.031496*%
%ADD42C,0.047244*%
%ADD80C,0.009264*%
%FSLAX26Y26*%
G04*
G70*
G90*
G75*
G01*
G04 Top*
%LPD*%
X2049606Y541043D2*
D14*
X2062106D1*
D15*
X2237106Y716043D1*
Y1081693D1*
Y1328543D1*
X2387106Y1478543D1*
D14*
X2399606D1*
Y1081693D2*
D15*
X2237106D1*
X1287106Y1503543D2*
D18*
X1424606D1*
X1487106Y1566043D1*
X1287106Y1453543D2*
X1573425D1*
X1685925Y1566043D1*
X1249606Y1553543D2*
Y1041043D1*
X1295472Y995177D1*
X1487106D1*
X1852756Y541043D2*
D15*
Y619193D1*
X2049606Y816043D1*
Y903543D1*
Y1316043D1*
Y866043D2*
Y816043D1*
Y916043D2*
Y903543D1*
X1037106Y1203543D2*
D18*
Y791043D1*
X949606Y703543D1*
X987106Y1253543D2*
Y803543D1*
X962106Y778543D1*
X924606D1*
X899606Y753543D1*
D20*
Y653543D1*
D18*
X849606Y603543D1*
X1887106Y1141043D2*
X1912106Y1166043D1*
Y1678543D1*
X1837106Y1753543D1*
X1087106Y1153543D2*
Y653543D1*
X1037106Y603543D1*
X949606D1*
D41*
X1837106Y1753543D3*
X1887106Y1141043D3*
X1087106Y1153543D3*
X1037106Y1203543D3*
X987106Y1253543D3*
X1287106Y1503543D3*
Y1453543D3*
X1249606Y1553543D3*
X748031Y1555118D3*
X669291Y944882D3*
X1240157Y964567D3*
X1161417Y748031D3*
X1417323Y492126D3*
D42*
X2049606Y1316043D3*
Y1266043D3*
Y1216043D3*
Y866043D3*
Y916043D3*
Y816043D3*
D41*
X1787106Y1466043D3*
X457253Y1646810D2*
D20*
X420135Y1609690D1*
X490660Y1646810D2*
X453819Y1609967D1*
X443177Y1599325D2*
X420135Y1576283D1*
X524067Y1646810D2*
X487226Y1609967D1*
X443177Y1565920D2*
X420135Y1542877D1*
X557474Y1646810D2*
X520631Y1609967D1*
X443177Y1532513D2*
X420135Y1509471D1*
X590881Y1646810D2*
X554038Y1609967D1*
X443177Y1499106D2*
X420135Y1476064D1*
X624287Y1646810D2*
X585357Y1607879D1*
X474593Y1497115D2*
X420135Y1442657D1*
X657693Y1646810D2*
X618013Y1607130D1*
X508000Y1497115D2*
X420135Y1409251D1*
X691100Y1646810D2*
X638860Y1594570D1*
X541407Y1497115D2*
X420135Y1375844D1*
X724507Y1646810D2*
X652252Y1574555D1*
X578597Y1500900D2*
X420135Y1342437D1*
X757913Y1646810D2*
X655041Y1543937D1*
X609215Y1498112D2*
X446071Y1334967D1*
X443184Y1332080D2*
X420135Y1309031D1*
X791320Y1646810D2*
X479478Y1334967D1*
X443177Y1298667D2*
X420135Y1275625D1*
X824727Y1646810D2*
X512883Y1334967D1*
X443177Y1265260D2*
X420135Y1242218D1*
X858134Y1646810D2*
X546290Y1334967D1*
X443177Y1231853D2*
X420135Y1208811D1*
X891539Y1646810D2*
X571688Y1326958D1*
X466845Y1222115D2*
X420135Y1175404D1*
X924946Y1646810D2*
X611913Y1333776D1*
X500252Y1222115D2*
X420135Y1141997D1*
X958353Y1646810D2*
X634701Y1323157D1*
X533659Y1222115D2*
X420135Y1108592D1*
X991760Y1646810D2*
X649837Y1304887D1*
X573264Y1228314D2*
X420135Y1075185D1*
X1025167Y1646810D2*
X656004Y1277647D1*
X600504Y1222147D2*
X420135Y1041778D1*
X1353833Y1942070D2*
X459234Y1047471D1*
X443177Y1031413D2*
X420135Y1008371D1*
X1387240Y1942070D2*
X492640Y1047471D1*
X443177Y998007D2*
X420135Y974965D1*
X1420647Y1942070D2*
X526047Y1047471D1*
X443177Y964600D2*
X420135Y941558D1*
X1454054Y1942070D2*
X556029Y1044046D1*
X446602Y934619D2*
X420135Y908151D1*
X1461442Y1916052D2*
X592257Y1046867D1*
X480009Y934619D2*
X420135Y874745D1*
X1461442Y1882646D2*
X621945Y1043148D1*
X513416Y934619D2*
X420135Y841339D1*
X1461442Y1849239D2*
X641535Y1029332D1*
X561323Y949121D2*
X556029Y943825D1*
X546822Y934619D2*
X420135Y807932D1*
X1467038Y1821428D2*
X1240635Y1595026D1*
X1208119Y1562510D2*
X653638Y1008029D1*
X582626Y937017D2*
X420135Y774525D1*
X1500444Y1821428D2*
X1270226Y1591209D1*
X1211937Y1532920D2*
X972077Y1293062D1*
X947588Y1268571D2*
X653117Y974100D1*
X616555Y937539D2*
X420135Y741118D1*
X1533850Y1821428D2*
X1287026Y1574604D1*
X1214840Y1502417D2*
X1004979Y1292556D1*
X948093Y1235671D2*
X420135Y707711D1*
X1567257Y1821428D2*
X1291839Y1546009D1*
X1214840Y1469010D2*
X1023004Y1277175D1*
X952335Y1206504D2*
X420135Y674306D1*
X1600664Y1821428D2*
X1317546Y1538310D1*
X1214840Y1435604D2*
X1029560Y1250324D1*
X952335Y1173098D2*
X420135Y640899D1*
X1634071Y1821428D2*
X1350953Y1538310D1*
X1214840Y1402198D2*
X1055138Y1242495D1*
X952335Y1139692D2*
X505168Y692525D1*
X1667478Y1821428D2*
X1482051Y1636001D1*
X1417156Y1571106D2*
X1384360Y1538310D1*
X1214840Y1368791D2*
X1073081Y1227031D1*
X952335Y1106285D2*
X546062Y700013D1*
X1700883Y1821428D2*
X1511559Y1632102D1*
X1290576Y1411121D2*
X1284385Y1404928D1*
X1214840Y1335385D2*
X1079524Y1200068D1*
X952335Y1072878D2*
X577396Y697941D1*
X1734290Y1821428D2*
X1532715Y1619853D1*
X1331633Y1418770D2*
X1287990Y1375126D1*
X1214840Y1301978D2*
X1105281Y1192417D1*
X952335Y1039471D2*
X603692Y690829D1*
X1767697Y1821428D2*
X1582402Y1636133D1*
X1365039Y1418770D2*
X1321395Y1375126D1*
X1214840Y1268571D2*
X1123175Y1176906D1*
X952335Y1006064D2*
X626382Y680112D1*
X1801104Y1821428D2*
X1611290Y1631614D1*
X1398446Y1418770D2*
X1354802Y1375126D1*
X1214840Y1235164D2*
X1129504Y1149828D1*
X952335Y972659D2*
X646087Y666411D1*
X1834510Y1821428D2*
X1632104Y1619021D1*
X1431853Y1418770D2*
X1388209Y1375126D1*
X1214840Y1201757D2*
X1121886Y1108803D1*
X952335Y939252D2*
X663083Y650000D1*
X1867917Y1821428D2*
X1842445Y1795955D1*
X1794710Y1748220D2*
X1682621Y1636133D1*
X1465260Y1418770D2*
X1421615Y1375126D1*
X1214840Y1168352D2*
X1121886Y1075396D1*
X952335Y905845D2*
X677373Y630883D1*
X1901324Y1821428D2*
X1865623Y1785728D1*
X1804937Y1725041D2*
X1711558Y1631663D1*
X1498667Y1418770D2*
X1431223Y1351328D1*
X1214840Y1134945D2*
X1121886Y1041990D1*
X952335Y872438D2*
X843378Y763482D1*
X789656Y709761D2*
X688774Y608878D1*
X1934730Y1821428D2*
X1878364Y1765060D1*
X1825588Y1712285D2*
X1732404Y1619102D1*
X1532072Y1418770D2*
X1431223Y1317921D1*
X1296840Y1183538D2*
X1284385Y1171081D1*
X1214840Y1101538D2*
X1121886Y1008584D1*
X952335Y839031D2*
X926617Y813315D1*
X793619Y680318D2*
X696751Y583449D1*
X2088780Y1942070D2*
X2075655Y1928946D1*
X1968136Y1821428D2*
X1893517Y1746807D1*
X1843841Y1697131D2*
X1747362Y1600654D1*
X1565479Y1418770D2*
X1431223Y1284514D1*
X1330247Y1183538D2*
X1284385Y1137676D1*
X1214840Y1068131D2*
X1121886Y975177D1*
X806996Y660287D2*
X700127Y553419D1*
X2122185Y1942070D2*
X2075655Y1895539D1*
X2001543Y1821428D2*
X1910220Y1730105D1*
X1860543Y1680428D2*
X1755600Y1575484D1*
X1676482Y1496366D2*
X1431223Y1251108D1*
X1363654Y1183538D2*
X1284385Y1104269D1*
X1215215Y1035100D2*
X1121886Y941770D1*
X789640Y609525D2*
X695528Y515412D1*
X2155592Y1942070D2*
X2075655Y1862133D1*
X2034950Y1821428D2*
X1926924Y1713402D1*
X1877247Y1663726D2*
X1748211Y1534689D1*
X1717277Y1503755D2*
X1431223Y1217701D1*
X1397059Y1183538D2*
X1284385Y1070862D1*
X1227253Y1013731D2*
X1121886Y908364D1*
X793685Y580163D2*
X633656Y420134D1*
X2188999Y1942070D2*
X2075655Y1828726D1*
X2068346Y1821419D2*
X1942664Y1695735D1*
X1877329Y1630400D2*
X1293617Y1046688D1*
X1243957Y997028D2*
X1146370Y899441D1*
X807110Y560181D2*
X667063Y420134D1*
X2222406Y1942070D2*
X1946873Y1666537D1*
X1877329Y1596993D2*
X1310320Y1029984D1*
X1260660Y980325D2*
X1179777Y899441D1*
X789608Y509272D2*
X700470Y420134D1*
X2255812Y1942070D2*
X1946873Y1633131D1*
X1877329Y1563587D2*
X1343694Y1029951D1*
X1278325Y964584D2*
X1213182Y899441D1*
X793751Y480008D2*
X733877Y420134D1*
X2289219Y1942070D2*
X1946873Y1599724D1*
X1877329Y1530180D2*
X1377101Y1029951D1*
X1307556Y960408D2*
X1243034Y895885D1*
X1129790Y782642D2*
X1121886Y774738D1*
X807224Y460075D2*
X767283Y420134D1*
X2322626Y1942070D2*
X1946873Y1566318D1*
X1877329Y1496773D2*
X1751751Y1371196D1*
X1741451Y1360896D2*
X1410507Y1029951D1*
X1340963Y960408D2*
X1277990Y897434D1*
X1163197Y782642D2*
X1121886Y741331D1*
X827614Y447059D2*
X800689Y420134D1*
X2256122Y1842160D2*
X1946873Y1532911D1*
X1877329Y1463367D2*
X1785157Y1371196D1*
X1741451Y1327490D2*
X1478723Y1064761D1*
X1374370Y960408D2*
X1299929Y885967D1*
X1196604Y782642D2*
X1121886Y707924D1*
X857840Y443878D2*
X834096Y420134D1*
X2252713Y1805344D2*
X1946873Y1499504D1*
X1877329Y1429961D2*
X1818564Y1371196D1*
X1741451Y1294083D2*
X1509357Y1061988D1*
X1407777Y960408D2*
X1314610Y867241D1*
X1235915Y788547D2*
X1121886Y674517D1*
X1016146Y568777D2*
X993185Y545816D1*
X907329Y459961D2*
X867503Y420134D1*
X2256660Y1775886D2*
X1946873Y1466097D1*
X1877329Y1396554D2*
X1851970Y1371196D1*
X1741451Y1260676D2*
X1531101Y1050325D1*
X1431967Y951192D2*
X1320466Y839690D1*
X1263466Y782690D2*
X1115866Y635092D1*
X1055555Y574781D2*
X1006136Y525362D1*
X927785Y447009D2*
X900909Y420134D1*
X2265029Y1750846D2*
X1946873Y1432690D1*
X1741451Y1227269D2*
X1546841Y1032660D1*
X1449617Y935434D2*
X1173007Y658825D1*
X1106840Y592657D2*
X1009236Y495055D1*
X958092Y443911D2*
X934316Y420134D1*
X2276756Y1729168D2*
X1946873Y1399285D1*
X1741451Y1193864D2*
X1556172Y1008584D1*
X1473709Y926121D2*
X1197344Y649756D1*
X1115909Y568320D2*
X967723Y420134D1*
X2291340Y1710344D2*
X1946873Y1365878D1*
X1760585Y1179591D2*
X1553039Y972045D1*
X1510231Y929236D2*
X1213950Y632954D1*
X1132710Y551715D2*
X1115295Y534301D1*
X1106350Y525356D2*
X1001130Y420134D1*
X2308612Y1694210D2*
X1946886Y1332484D1*
X1794005Y1179604D2*
X1679584Y1065182D1*
X1613940Y999538D2*
X1222756Y608354D1*
X1157290Y542888D2*
X1148699Y534298D1*
X1106348Y491946D2*
X1034533Y420131D1*
X2328626Y1680818D2*
X1946886Y1299079D1*
X1827412Y1179604D2*
X1708881Y1061072D1*
X1618066Y970257D2*
X1244467Y596659D1*
X1106348Y458539D2*
X1067940Y420131D1*
X2351657Y1670444D2*
X1946886Y1265672D1*
X1860819Y1179604D2*
X1729923Y1048707D1*
X1630430Y949215D2*
X1269946Y588731D1*
X1106348Y425133D2*
X1101346Y420131D1*
X2378392Y1663772D2*
X1946886Y1232265D1*
X1845518Y1130896D2*
X1745028Y1030406D1*
X1648717Y934094D2*
X1287366Y572745D1*
X2410429Y1662402D2*
X1946886Y1198858D1*
X1857703Y1109675D2*
X1753509Y1005482D1*
X1673656Y925629D2*
X1297252Y549223D1*
X1228915Y480887D2*
X1223134Y475106D1*
X2453068Y1671634D2*
X2336087Y1554652D1*
X2323504Y1542070D2*
X1946854Y1165419D1*
X1880262Y1098828D2*
X1747245Y965811D1*
X1713327Y931892D2*
X1287840Y506406D1*
X1271717Y490282D2*
X1223147Y441713D1*
X2532621Y1717780D2*
X2369493Y1554652D1*
X2323504Y1508663D2*
X1234972Y420131D1*
X2532621Y1684373D2*
X2402900Y1554652D1*
X2170841Y1322593D2*
X1268379Y420131D1*
X2532621Y1650967D2*
X2436307Y1554652D1*
X2170841Y1289186D2*
X1543119Y661465D1*
X1491682Y610028D2*
X1301786Y420131D1*
X2532621Y1617560D2*
X2469713Y1554652D1*
X2170841Y1255780D2*
X1572579Y657518D1*
X1495630Y580568D2*
X1335193Y420131D1*
X2532621Y1584154D2*
X2475715Y1527248D1*
X2170841Y1222374D2*
X1592332Y643865D1*
X1491209Y542741D2*
X1368600Y420131D1*
X2532621Y1550747D2*
X2475715Y1493841D1*
X2170841Y1188967D2*
X1604892Y623018D1*
X1491209Y509335D2*
X1402007Y420131D1*
X2532621Y1517340D2*
X2475715Y1460434D1*
X2417720Y1402440D2*
X2363262Y1347982D1*
X2333323Y1318042D2*
X2303382Y1288100D1*
X2170841Y1155560D2*
X1606475Y591194D1*
X1491209Y475928D2*
X1435413Y420131D1*
X2532621Y1483933D2*
X2475715Y1427028D1*
X2451127Y1402440D2*
X2406260Y1357572D1*
X2323715Y1275028D2*
X2303382Y1254694D1*
X2170841Y1122154D2*
X1608008Y559320D1*
X1493835Y445147D2*
X1468819Y420131D1*
X2532621Y1450528D2*
X2432652Y1350558D1*
X2330730Y1248635D2*
X2303382Y1221287D1*
X2170841Y1088747D2*
X1608008Y525913D1*
X1527241Y445147D2*
X1502226Y420131D1*
X2532621Y1417121D2*
X2452455Y1336954D1*
X2344350Y1228849D2*
X2303382Y1187881D1*
X2170841Y1055340D2*
X1608008Y492508D1*
X1560648Y445147D2*
X1535633Y420131D1*
X2532621Y1383714D2*
X2466858Y1317951D1*
X2363353Y1214446D2*
X2303382Y1154474D1*
X2170841Y1021934D2*
X1608008Y459101D1*
X1594055Y445147D2*
X1569039Y420131D1*
X2532621Y1350307D2*
X2475030Y1292717D1*
X2388588Y1206274D2*
X2340115Y1157802D1*
X2170841Y988528D2*
X1602446Y420131D1*
X2532621Y1316900D2*
X2470366Y1254644D1*
X2426660Y1210938D2*
X2373522Y1157802D1*
X2170841Y955121D2*
X1828609Y612888D1*
X1780907Y565186D2*
X1635853Y420131D1*
X2532621Y1283493D2*
X2406929Y1157802D1*
X2170841Y921714D2*
X1865360Y616232D1*
X1777563Y528436D2*
X1669259Y420131D1*
X2532621Y1250087D2*
X2440336Y1157802D1*
X2170841Y888307D2*
X1890186Y607652D1*
X1786143Y503609D2*
X1702665Y420131D1*
X2532621Y1216681D2*
X2473741Y1157802D1*
X2323504Y1007563D2*
X2303382Y987441D1*
X2170841Y854900D2*
X1908896Y592955D1*
X1800857Y484916D2*
X1736072Y420131D1*
X2532621Y1183274D2*
X2475715Y1126369D1*
X2354937Y1005589D2*
X2303382Y954034D1*
X2170841Y821493D2*
X1922206Y572860D1*
X1820953Y471605D2*
X1769479Y420131D1*
X2532621Y1149867D2*
X2475715Y1092962D1*
X2388343Y1005589D2*
X2303382Y920627D1*
X2170841Y788088D2*
X1999900Y617146D1*
X1973501Y590747D2*
X1928748Y545993D1*
X1847802Y465049D2*
X1802886Y420131D1*
X2532621Y1116461D2*
X2475715Y1059555D1*
X2421749Y1005589D2*
X2371206Y955046D1*
X2329408Y913248D2*
X2303382Y887220D1*
X2170841Y754681D2*
X2033307Y617146D1*
X1973501Y557340D2*
X1916106Y499945D1*
X1893850Y477690D2*
X1836293Y420131D1*
X2532621Y1083054D2*
X2475715Y1026148D1*
X2455156Y1005589D2*
X2409913Y960346D1*
X2324091Y874524D2*
X2303382Y853814D1*
X1973501Y523933D2*
X1869699Y420131D1*
X2532621Y1049647D2*
X2435344Y952370D1*
X2332084Y849110D2*
X2303382Y820408D1*
X1973501Y490528D2*
X1903105Y420131D1*
X2532621Y1016241D2*
X2454478Y938097D1*
X2346357Y829976D2*
X2303382Y787001D1*
X1981314Y464934D2*
X1936512Y420131D1*
X2532621Y982835D2*
X2468213Y918425D1*
X2366012Y816226D2*
X2303382Y753594D1*
X2014720Y464934D2*
X1969919Y420131D1*
X2532621Y949428D2*
X2475438Y892245D1*
X2392209Y809016D2*
X2303382Y720188D1*
X2048127Y464934D2*
X2003325Y420131D1*
X2532621Y916021D2*
X2466875Y850274D1*
X2434180Y817579D2*
X2125713Y509113D1*
X2081534Y464934D2*
X2036732Y420131D1*
X2532621Y882614D2*
X2332710Y682703D1*
X2270050Y620043D2*
X2125713Y475706D1*
X2114941Y464934D2*
X2070139Y420131D1*
X2532621Y849207D2*
X2382151Y698738D1*
X2254016Y570602D2*
X2103545Y420131D1*
X2532621Y815802D2*
X2416291Y699471D1*
X2253281Y536461D2*
X2136951Y420131D1*
X2532621Y782395D2*
X2444299Y694072D1*
X2258680Y508454D2*
X2170358Y420131D1*
X2532621Y748988D2*
X2468294Y684660D1*
X2268092Y484459D2*
X2203765Y420131D1*
X2532621Y715581D2*
X2489125Y672084D1*
X2280669Y463629D2*
X2237172Y420131D1*
X2532621Y682175D2*
X2507165Y656718D1*
X2296034Y445588D2*
X2270579Y420131D1*
X2532621Y648768D2*
X2522530Y638677D1*
X2314092Y430239D2*
X2303984Y420131D1*
X2300462Y1942070D2*
X2312052Y1930479D1*
X2521030Y1721501D2*
X2532621Y1709911D1*
X2267055Y1942070D2*
X2294289Y1914836D1*
X2505387Y1703738D2*
X2532621Y1676504D1*
X2233648Y1942070D2*
X2279201Y1896517D1*
X2487068Y1688650D2*
X2532621Y1643097D1*
X2200241Y1942070D2*
X2266934Y1875378D1*
X2465929Y1676383D2*
X2532621Y1609690D1*
X2166835Y1942070D2*
X2257898Y1851008D1*
X2441559Y1667346D2*
X2532621Y1576283D1*
X2133428Y1942070D2*
X2253004Y1822495D1*
X2413046Y1662453D2*
X2532621Y1542877D1*
X2100022Y1942070D2*
X2254651Y1787441D1*
X2377992Y1664100D2*
X2532621Y1509471D1*
X2075652Y1933033D2*
X2274845Y1733840D1*
X2324391Y1684294D2*
X2454031Y1554655D1*
X2475715Y1532970D2*
X2532621Y1476064D1*
X2075652Y1899627D2*
X2420625Y1554655D1*
X2475715Y1499563D2*
X2532621Y1442657D1*
X2075652Y1866220D2*
X2387218Y1554655D1*
X2475715Y1466156D2*
X2532621Y1409251D1*
X2075652Y1832814D2*
X2353811Y1554655D1*
X2475715Y1432749D2*
X2532621Y1375844D1*
X2053631Y1821428D2*
X2323504Y1551555D1*
X2472633Y1402427D2*
X2532621Y1342437D1*
X2020224Y1821428D2*
X2323504Y1518148D1*
X2439226Y1402427D2*
X2532621Y1309031D1*
X1986818Y1821428D2*
X2311302Y1496944D1*
X2405820Y1402427D2*
X2532621Y1275625D1*
X1953411Y1821428D2*
X2294598Y1480240D1*
X2388806Y1386033D2*
X2420135Y1354703D1*
X2472617Y1302222D2*
X2532621Y1242218D1*
X1920004Y1821428D2*
X2277896Y1463537D1*
X2372104Y1369329D2*
X2384917Y1356514D1*
X2474428Y1267005D2*
X2532621Y1208811D1*
X1886598Y1821428D2*
X2261193Y1446833D1*
X2355400Y1352626D2*
X2360625Y1347402D1*
X2465325Y1242701D2*
X2532621Y1175404D1*
X1853192Y1821428D2*
X2244490Y1430130D1*
X2450220Y1224399D2*
X2532621Y1141997D1*
X1819785Y1821428D2*
X1846219Y1794993D1*
X1878556Y1762656D2*
X2227786Y1413427D1*
X2321993Y1319219D2*
X2329425Y1311787D1*
X2429701Y1211512D2*
X2532621Y1108592D1*
X1786378Y1821428D2*
X1816549Y1791257D1*
X1946886Y1660920D2*
X2211083Y1396723D1*
X2305290Y1302516D2*
X2323520Y1284286D1*
X2402198Y1205608D2*
X2450001Y1157804D1*
X2475715Y1132091D2*
X2532621Y1075185D1*
X1752971Y1821428D2*
X1799715Y1774685D1*
X1946886Y1627513D2*
X2194379Y1380020D1*
X2303382Y1271018D2*
X2416596Y1157804D1*
X2475715Y1098684D2*
X2532621Y1041778D1*
X1719564Y1821428D2*
X1795392Y1745601D1*
X1829164Y1711828D2*
X1877327Y1663667D1*
X1946886Y1594106D2*
X2179340Y1361652D1*
X2303382Y1237612D2*
X2383189Y1157804D1*
X2475715Y1065277D2*
X2532621Y1008371D1*
X1686159Y1821428D2*
X1877327Y1630260D1*
X1946886Y1560699D2*
X2171217Y1336370D1*
X2303382Y1204205D2*
X2349782Y1157804D1*
X2475715Y1031870D2*
X2532621Y974965D1*
X1652752Y1821428D2*
X1877327Y1596853D1*
X1946886Y1527293D2*
X2170841Y1303339D1*
X2303382Y1170798D2*
X2323504Y1150676D1*
X2468604Y1005576D2*
X2532621Y941558D1*
X1619345Y1821428D2*
X1877327Y1563446D1*
X1946886Y1493886D2*
X2170841Y1269932D1*
X2435197Y1005576D2*
X2532621Y908151D1*
X1585938Y1821428D2*
X1877327Y1530039D1*
X1946886Y1460480D2*
X2170841Y1236525D1*
X2401790Y1005576D2*
X2532621Y874745D1*
X1431890Y1942070D2*
X1461440Y1912520D1*
X1552531Y1821428D2*
X1877327Y1496634D1*
X1946886Y1427073D2*
X2170841Y1203118D1*
X2368385Y1005576D2*
X2414719Y959240D1*
X2474003Y899957D2*
X2532621Y841339D1*
X1398483Y1942070D2*
X1461440Y1879113D1*
X1519125Y1821428D2*
X1708303Y1632249D1*
X1752123Y1588429D2*
X1877327Y1463227D1*
X1946886Y1393667D2*
X2170841Y1169711D1*
X2334978Y1005576D2*
X2381591Y958963D1*
X2473726Y866827D2*
X2532621Y807932D1*
X1365076Y1942070D2*
X1461440Y1845706D1*
X1485718Y1821428D2*
X1672123Y1635022D1*
X1754912Y1552234D2*
X1877327Y1429820D1*
X1946886Y1360260D2*
X2170841Y1136304D1*
X2303382Y1003765D2*
X2358117Y949029D1*
X2463791Y843354D2*
X2532621Y774525D1*
X1340837Y1932903D2*
X1648146Y1625594D1*
X1745469Y1528272D2*
X1877327Y1396413D1*
X1946886Y1326853D2*
X2170841Y1102899D1*
X2303382Y970358D2*
X2340451Y933287D1*
X2448051Y825689D2*
X2532621Y741118D1*
X1324134Y1916199D2*
X1608181Y1632152D1*
X1729646Y1510688D2*
X1869138Y1371196D1*
X1946886Y1293446D2*
X2170841Y1069492D1*
X2303382Y936951D2*
X2328266Y912067D1*
X2426829Y813504D2*
X2532621Y707711D1*
X1307430Y1899496D2*
X1571871Y1635055D1*
X1707820Y1499106D2*
X1835731Y1371196D1*
X1946886Y1260039D2*
X2170841Y1036085D1*
X2303382Y903545D2*
X2323537Y883390D1*
X2398154Y808773D2*
X2532621Y674306D1*
X1290727Y1882793D2*
X1547860Y1625660D1*
X1676991Y1496529D2*
X1802324Y1371196D1*
X1946886Y1226634D2*
X2170841Y1002678D1*
X2303382Y870138D2*
X2532621Y640899D1*
X1274024Y1866089D2*
X1507047Y1633066D1*
X1654823Y1485290D2*
X1768917Y1371196D1*
X1946886Y1193227D2*
X2170841Y969272D1*
X2303382Y836732D2*
X2447588Y692525D1*
X1257320Y1849386D2*
X1471945Y1634761D1*
X1638119Y1468587D2*
X1741465Y1365241D1*
X1946512Y1160196D2*
X2170841Y935865D1*
X2303382Y803325D2*
X2406694Y700013D1*
X1240617Y1832682D2*
X1448341Y1624958D1*
X1621416Y1451883D2*
X1741465Y1331835D1*
X1934505Y1138794D2*
X2170841Y902459D1*
X2303382Y769919D2*
X2375360Y697941D1*
X1223913Y1815979D2*
X1431034Y1608858D1*
X1604713Y1435180D2*
X1741465Y1298428D1*
X1922794Y1117100D2*
X2170841Y869052D1*
X2303382Y736512D2*
X2349064Y690829D1*
X1207210Y1799277D2*
X1419795Y1586690D1*
X1585726Y1420760D2*
X1741465Y1265021D1*
X1826896Y1179591D2*
X1847932Y1158554D1*
X1904622Y1101865D2*
X2170841Y835646D1*
X2302419Y704068D2*
X2326374Y680112D1*
X1190507Y1782573D2*
X1417887Y1555193D1*
X1554310Y1418770D2*
X1741465Y1231615D1*
X1793490Y1179591D2*
X1847965Y1125115D1*
X1871167Y1101913D2*
X2170841Y802239D1*
X2293089Y679991D2*
X2306669Y666411D1*
X1173803Y1765870D2*
X1401364Y1538310D1*
X1520903Y1418770D2*
X1741465Y1198209D1*
X1760084Y1179591D2*
X2170841Y768832D1*
X2277478Y662196D2*
X2289673Y650000D1*
X1157101Y1749167D2*
X1367957Y1538310D1*
X1487496Y1418770D2*
X2166567Y739699D1*
X2260774Y645492D2*
X2275383Y630883D1*
X1140398Y1732463D2*
X1334550Y1538310D1*
X1454089Y1418770D2*
X2149865Y722996D1*
X2244072Y628789D2*
X2263982Y608878D1*
X1123694Y1715760D2*
X1243579Y1595874D1*
X1420684Y1418770D2*
X2133161Y706293D1*
X2227369Y612085D2*
X2256005Y583449D1*
X1106991Y1699056D2*
X1220694Y1585353D1*
X1387277Y1418770D2*
X2116458Y689589D1*
X2210665Y595382D2*
X2252629Y553419D1*
X1090287Y1682353D2*
X1208199Y1564441D1*
X1353870Y1418770D2*
X1397514Y1375126D1*
X1431238Y1341403D2*
X1715039Y1057601D1*
X1746382Y1026259D2*
X2099755Y672886D1*
X2193962Y578678D2*
X2257228Y515412D1*
X1073584Y1665650D2*
X1214837Y1524396D1*
X1320463Y1418770D2*
X1364108Y1375126D1*
X1431238Y1307997D2*
X1674407Y1064827D1*
X1753608Y985626D2*
X2083051Y656182D1*
X2177259Y561975D2*
X2319100Y420134D1*
X1056881Y1648946D2*
X1214837Y1490990D1*
X1294429Y1411398D2*
X1330701Y1375126D1*
X1431238Y1274591D2*
X1649270Y1056556D1*
X1745337Y960490D2*
X2066348Y639479D1*
X2160555Y545272D2*
X2285693Y420134D1*
X1025610Y1646810D2*
X1214837Y1457583D1*
X1284382Y1388039D2*
X1297294Y1375126D1*
X1431238Y1241184D2*
X1630822Y1041598D1*
X1730379Y942041D2*
X2049644Y622776D1*
X2143852Y528568D2*
X2252286Y420134D1*
X992205Y1646810D2*
X1214837Y1424176D1*
X1431238Y1207777D2*
X1618294Y1020719D1*
X1709500Y929513D2*
X2021865Y617148D1*
X2127148Y511865D2*
X2218879Y420134D1*
X958798Y1646810D2*
X1214837Y1390769D1*
X1422070Y1183538D2*
X1613890Y991717D1*
X1680497Y925109D2*
X1988459Y617148D1*
X2125713Y479894D2*
X2185472Y420134D1*
X925391Y1646810D2*
X1214837Y1357364D1*
X1388663Y1183538D2*
X1511615Y1060585D1*
X1552516Y1019685D2*
X1973501Y598699D1*
X2107264Y464937D2*
X2152067Y420134D1*
X891984Y1646810D2*
X1214837Y1323957D1*
X1355256Y1183538D2*
X1474424Y1064370D1*
X1556299Y982495D2*
X1973501Y565293D1*
X2073858Y464937D2*
X2118660Y420134D1*
X858577Y1646810D2*
X1214837Y1290550D1*
X1321850Y1183538D2*
X1450152Y1055235D1*
X1547165Y958222D2*
X1973501Y531887D1*
X2040451Y464937D2*
X2085253Y420134D1*
X825171Y1646810D2*
X1214837Y1257143D1*
X1288444Y1183538D2*
X1432340Y1039642D1*
X1531571Y940409D2*
X1854881Y617100D1*
X1928812Y543168D2*
X1973501Y498480D1*
X2007045Y464937D2*
X2051846Y420134D1*
X791765Y1646810D2*
X1214837Y1223736D1*
X1284382Y1154193D2*
X1408622Y1029951D1*
X1510007Y928567D2*
X1826009Y612564D1*
X1924262Y514312D2*
X2018440Y420134D1*
X758358Y1646810D2*
X1214837Y1190329D1*
X1284382Y1120786D2*
X1375215Y1029951D1*
X1479699Y925469D2*
X1804673Y600495D1*
X1912192Y492976D2*
X1985033Y420134D1*
X724951Y1646810D2*
X1214837Y1156923D1*
X1284382Y1087379D2*
X1341808Y1029951D1*
X1411353Y960408D2*
X1788835Y582927D1*
X1894639Y477121D2*
X1951626Y420134D1*
X691547Y1646807D2*
X1214840Y1123514D1*
X1377949Y960406D2*
X1778756Y559598D1*
X1871301Y467054D2*
X1918223Y420131D1*
X658140Y1646807D2*
X1214840Y1090108D1*
X1344542Y960406D2*
X1778169Y526778D1*
X1838480Y466467D2*
X1884816Y420131D1*
X624734Y1646807D2*
X976508Y1295033D1*
X1128589Y1142951D2*
X1214840Y1056701D1*
X1311135Y960406D2*
X1851409Y420131D1*
X591327Y1646807D2*
X955482Y1282652D1*
X1121886Y1116249D2*
X1818003Y420131D1*
X557921Y1646807D2*
X594892Y1609835D1*
X655890Y1548839D2*
X944831Y1259898D1*
X1121886Y1082843D2*
X1543067Y661661D1*
X1607717Y597010D2*
X1784596Y420131D1*
X524514Y1646807D2*
X569610Y1601711D1*
X647766Y1523555D2*
X952335Y1218987D1*
X1121886Y1049436D2*
X1273122Y898198D1*
X1319276Y852046D2*
X1518192Y653130D1*
X1599202Y572119D2*
X1751189Y420131D1*
X491108Y1646807D2*
X527949Y1609966D1*
X631390Y1506525D2*
X952335Y1185580D1*
X1121886Y1016029D2*
X1241853Y896062D1*
X1317122Y820793D2*
X1501178Y636736D1*
X1607995Y529920D2*
X1717783Y420131D1*
X457701Y1646807D2*
X494543Y1609966D1*
X607003Y1497505D2*
X952335Y1152173D1*
X1121886Y982622D2*
X1205070Y899438D1*
X1304318Y800190D2*
X1491815Y612693D1*
X1607995Y496513D2*
X1684377Y420131D1*
X424294Y1646807D2*
X461136Y1609966D1*
X556029Y1515073D2*
X952335Y1118768D1*
X1121886Y949215D2*
X1171663Y899438D1*
X1284335Y786766D2*
X1509171Y561930D1*
X1607995Y463106D2*
X1650970Y420131D1*
X420135Y1617560D2*
X443177Y1594518D1*
X540581Y1497114D2*
X952335Y1085361D1*
X1121886Y915808D2*
X1138256Y899438D1*
X1254403Y783291D2*
X1491211Y546483D1*
X1592547Y445147D2*
X1617563Y420131D1*
X420135Y1584154D2*
X443177Y1561112D1*
X507175Y1497114D2*
X952335Y1051954D1*
X1220507Y783781D2*
X1491211Y513076D1*
X1559140Y445147D2*
X1584156Y420131D1*
X420135Y1550747D2*
X443177Y1527705D1*
X473768Y1497114D2*
X952335Y1018547D1*
X1188226Y782656D2*
X1491211Y479669D1*
X1525734Y445147D2*
X1550749Y420131D1*
X420135Y1517340D2*
X602642Y1334833D1*
X655890Y1281585D2*
X952335Y985140D1*
X1154819Y782656D2*
X1517343Y420131D1*
X420135Y1483933D2*
X574617Y1329451D1*
X650507Y1253562D2*
X952335Y951734D1*
X1121886Y782182D2*
X1483937Y420131D1*
X420135Y1450528D2*
X535697Y1334965D1*
X635825Y1234836D2*
X952335Y918328D1*
X1121886Y748776D2*
X1450530Y420131D1*
X420135Y1417121D2*
X502291Y1334965D1*
X613560Y1223694D2*
X952335Y884921D1*
X1121886Y715369D2*
X1180357Y656898D1*
X1220752Y616504D2*
X1240483Y596773D1*
X1298102Y539152D2*
X1417123Y420131D1*
X420135Y1383714D2*
X468885Y1334965D1*
X576140Y1227707D2*
X952335Y851514D1*
X1121886Y681963D2*
X1147064Y656783D1*
X1292034Y511814D2*
X1383717Y420131D1*
X420135Y1350307D2*
X443177Y1327265D1*
X548329Y1222113D2*
X952171Y818270D1*
X1277240Y493202D2*
X1350310Y420131D1*
X420135Y1316900D2*
X443177Y1293858D1*
X514923Y1222113D2*
X923723Y813312D1*
X1255154Y481882D2*
X1316903Y420131D1*
X420135Y1283493D2*
X443177Y1260451D1*
X481516Y1222113D2*
X900022Y803606D1*
X1093421Y610207D2*
X1106546Y597083D1*
X1160936Y542693D2*
X1169331Y534298D1*
X1223150Y480479D2*
X1283497Y420131D1*
X420135Y1250087D2*
X443177Y1227045D1*
X448097Y1222125D2*
X883302Y786920D1*
X1076718Y593504D2*
X1135924Y534298D1*
X1223150Y447072D2*
X1250091Y420131D1*
X420135Y1216681D2*
X590031Y1046783D1*
X655335Y981480D2*
X868034Y768781D1*
X1059950Y576866D2*
X1106350Y530465D1*
X420135Y1183274D2*
X566364Y1037045D1*
X645613Y957795D2*
X840125Y763283D1*
X1034634Y568774D2*
X1106350Y497058D1*
X420135Y1149867D2*
X522534Y1047469D1*
X628045Y941957D2*
X815951Y754051D1*
X1001227Y568774D2*
X1106350Y463652D1*
X420135Y1116461D2*
X489127Y1047469D1*
X601962Y934633D2*
X799231Y737364D1*
X997720Y538875D2*
X1106350Y430245D1*
X420135Y1083054D2*
X455720Y1047469D1*
X556029Y947160D2*
X789917Y713272D1*
X1009318Y493871D2*
X1083056Y420131D1*
X420135Y1049647D2*
X443177Y1026605D1*
X535165Y934617D2*
X801238Y668545D1*
X1000020Y469762D2*
X1049651Y420131D1*
X420135Y1016241D2*
X443177Y993199D1*
X501759Y934617D2*
X799134Y637243D1*
X983301Y453075D2*
X1016244Y420131D1*
X420135Y982835D2*
X443177Y959793D1*
X468353Y934617D2*
X789885Y613084D1*
X959143Y443827D2*
X982837Y420131D1*
X420135Y949428D2*
X801971Y567591D1*
X913650Y455913D2*
X949430Y420131D1*
X420135Y916021D2*
X799052Y537104D1*
X883163Y452993D2*
X916024Y420131D1*
X420135Y882614D2*
X620046Y682703D1*
X682706Y620043D2*
X789852Y512898D1*
X858955Y443794D2*
X882617Y420131D1*
X420135Y849207D2*
X570605Y698738D1*
X698740Y570602D2*
X802885Y466457D1*
X812512Y456831D2*
X849211Y420131D1*
X420135Y815802D2*
X536465Y699471D1*
X699475Y536461D2*
X815804Y420131D1*
X420135Y782395D2*
X508457Y694072D1*
X694076Y508454D2*
X782398Y420131D1*
X420135Y748988D2*
X484462Y684660D1*
X684664Y484459D2*
X748991Y420131D1*
X420135Y715581D2*
X463631Y672084D1*
X672087Y463629D2*
X715584Y420131D1*
X420135Y682175D2*
X445591Y656718D1*
X656722Y445588D2*
X682177Y420131D1*
X420135Y648768D2*
X430226Y638677D1*
X638664Y430239D2*
X648772Y420131D1*
X1420375Y1547290D2*
X1418591Y1555192D1*
X1417950Y1560601D1*
X1417736Y1566043D1*
X1417950Y1571486D1*
X1418591Y1576895D1*
X1419654Y1582238D1*
X1421131Y1587480D1*
X1423017Y1592591D1*
X1425297Y1597537D1*
X1427958Y1602289D1*
X1430984Y1606818D1*
X1434357Y1611096D1*
X1438054Y1615096D1*
X1442054Y1618793D1*
X1446332Y1622165D1*
X1450861Y1625192D1*
X1455613Y1627853D1*
X1460559Y1630133D1*
X1465669Y1632018D1*
X1470912Y1633496D1*
X1476255Y1634559D1*
X1481664Y1635199D1*
X1487106Y1635413D1*
X1492549Y1635199D1*
X1497958Y1634559D1*
X1503301Y1633496D1*
X1508543Y1632018D1*
X1513654Y1630133D1*
X1518600Y1627853D1*
X1523352Y1625192D1*
X1527881Y1622165D1*
X1532159Y1618793D1*
X1536318Y1614924D1*
X1541150Y1619357D1*
X1545843Y1622938D1*
X1550824Y1626106D1*
X1556058Y1628840D1*
X1561504Y1631119D1*
X1567123Y1632927D1*
X1572877Y1634249D1*
X1578722Y1635079D1*
X1584617Y1635407D1*
X1590518Y1635234D1*
X1596383Y1634559D1*
X1602169Y1633388D1*
X1607836Y1631730D1*
X1613340Y1629596D1*
X1618643Y1627001D1*
X1623706Y1623965D1*
X1628493Y1620509D1*
X1632969Y1616659D1*
X1635728Y1613920D1*
X1640873Y1618793D1*
X1645151Y1622165D1*
X1649680Y1625192D1*
X1654432Y1627853D1*
X1659378Y1630133D1*
X1664488Y1632018D1*
X1669731Y1633496D1*
X1675073Y1634559D1*
X1680483Y1635199D1*
X1685925Y1635413D1*
X1691367Y1635199D1*
X1696777Y1634559D1*
X1702119Y1633496D1*
X1707362Y1632018D1*
X1712472Y1630133D1*
X1717419Y1627853D1*
X1722171Y1625192D1*
X1726699Y1622165D1*
X1730978Y1618793D1*
X1734978Y1615096D1*
X1738675Y1611096D1*
X1742047Y1606818D1*
X1745073Y1602289D1*
X1747735Y1597537D1*
X1750014Y1592591D1*
X1751900Y1587480D1*
X1753378Y1582238D1*
X1754441Y1576895D1*
X1755081Y1571486D1*
X1755295Y1566043D1*
X1755081Y1560601D1*
X1754441Y1555192D1*
X1753378Y1549849D1*
X1751900Y1544606D1*
X1750014Y1539496D1*
X1747735Y1534550D1*
X1745073Y1529798D1*
X1742047Y1525269D1*
X1738675Y1520991D1*
X1734978Y1516991D1*
X1730978Y1513294D1*
X1726699Y1509921D1*
X1722171Y1506895D1*
X1717419Y1504234D1*
X1712472Y1501954D1*
X1707362Y1500068D1*
X1702119Y1498591D1*
X1696777Y1497528D1*
X1691367Y1496887D1*
X1685925Y1496673D1*
X1680483Y1496887D1*
X1675073Y1497528D1*
X1667172Y1499312D1*
X1595466Y1427738D1*
X1591157Y1424608D1*
X1586412Y1422189D1*
X1581348Y1420543D1*
X1576088Y1419711D1*
X1555709Y1419606D1*
X1311530D1*
X1306088Y1416290D1*
X1300026Y1413778D1*
X1293647Y1412247D1*
X1287106Y1411732D1*
X1283543Y1411811D1*
Y1374278D1*
X1430394Y1374291D1*
Y1184370D1*
X1283545D1*
X1283543Y1055104D1*
X1309538Y1029105D1*
X1426617Y1029114D1*
X1430984Y1035951D1*
X1434357Y1040230D1*
X1438054Y1044230D1*
X1442054Y1047927D1*
X1446332Y1051299D1*
X1450861Y1054325D1*
X1455613Y1056987D1*
X1460559Y1059266D1*
X1465669Y1061152D1*
X1470912Y1062630D1*
X1476255Y1063693D1*
X1481664Y1064333D1*
X1487106Y1064547D1*
X1492549Y1064333D1*
X1497958Y1063693D1*
X1503301Y1062630D1*
X1508543Y1061152D1*
X1513654Y1059266D1*
X1518600Y1056987D1*
X1523352Y1054325D1*
X1527881Y1051299D1*
X1532159Y1047927D1*
X1536159Y1044230D1*
X1539856Y1040230D1*
X1543228Y1035951D1*
X1546255Y1031423D1*
X1548916Y1026671D1*
X1551196Y1021724D1*
X1553081Y1016614D1*
X1554559Y1011371D1*
X1555622Y1006029D1*
X1556262Y1000619D1*
X1556476Y995177D1*
X1556262Y989735D1*
X1555622Y984325D1*
X1554559Y978983D1*
X1553081Y973740D1*
X1551196Y968630D1*
X1548916Y963684D1*
X1546255Y958932D1*
X1543228Y954403D1*
X1539856Y950125D1*
X1536159Y946125D1*
X1532159Y942428D1*
X1527881Y939055D1*
X1523352Y936029D1*
X1518600Y933367D1*
X1513654Y931088D1*
X1508543Y929202D1*
X1503301Y927724D1*
X1497958Y926661D1*
X1492549Y926021D1*
X1487106Y925807D1*
X1481664Y926021D1*
X1476255Y926661D1*
X1470912Y927724D1*
X1465669Y929202D1*
X1460559Y931088D1*
X1455613Y933367D1*
X1450861Y936029D1*
X1446332Y939055D1*
X1442054Y942428D1*
X1438054Y946125D1*
X1434357Y950125D1*
X1430984Y954403D1*
X1426659Y961252D1*
X1292810Y961345D1*
X1287550Y962177D1*
X1282486Y963823D1*
X1277740Y966241D1*
X1273432Y969371D1*
X1258948Y983707D1*
X1223801Y1019003D1*
X1220671Y1023311D1*
X1218252Y1028056D1*
X1216606Y1033121D1*
X1215774Y1038381D1*
X1215669Y1058760D1*
Y1529101D1*
X1212353Y1534562D1*
X1209841Y1540623D1*
X1208310Y1547003D1*
X1207795Y1553543D1*
X1208310Y1560084D1*
X1209841Y1566463D1*
X1212353Y1572525D1*
X1215781Y1578119D1*
X1220042Y1583108D1*
X1225030Y1587369D1*
X1230625Y1590797D1*
X1236686Y1593308D1*
X1243066Y1594840D1*
X1249606Y1595354D1*
X1256147Y1594840D1*
X1262526Y1593308D1*
X1268588Y1590797D1*
X1274182Y1587369D1*
X1279171Y1583108D1*
X1283432Y1578119D1*
X1286860Y1572525D1*
X1289371Y1566463D1*
X1290903Y1560084D1*
X1291417Y1553543D1*
X1290903Y1547003D1*
X1290545Y1545203D1*
X1296867Y1544199D1*
X1303106Y1542172D1*
X1308953Y1539193D1*
X1311522Y1537476D1*
X1410546Y1537480D1*
X1420331Y1547261D1*
X1753316Y993996D2*
X1752965Y988102D1*
X1752114Y982261D1*
X1750769Y976512D1*
X1748940Y970899D1*
X1746640Y965462D1*
X1743886Y960239D1*
X1740698Y955270D1*
X1737100Y950591D1*
X1733117Y946234D1*
X1728777Y942231D1*
X1724113Y938612D1*
X1719157Y935402D1*
X1713948Y932625D1*
X1708520Y930302D1*
X1702915Y928448D1*
X1697172Y927077D1*
X1691335Y926201D1*
X1685442Y925823D1*
X1679541Y925948D1*
X1673669Y926573D1*
X1667874Y927697D1*
X1662194Y929308D1*
X1656672Y931398D1*
X1651348Y933949D1*
X1646260Y936944D1*
X1641445Y940360D1*
X1636938Y944172D1*
X1632772Y948356D1*
X1628976Y952877D1*
X1625579Y957705D1*
X1622604Y962804D1*
X1620073Y968138D1*
X1618005Y973668D1*
X1616416Y979353D1*
X1615315Y985154D1*
X1614711Y991026D1*
X1614609Y996929D1*
X1615009Y1002820D1*
X1615908Y1008655D1*
X1617301Y1014391D1*
X1619176Y1019990D1*
X1621520Y1025408D1*
X1624316Y1030608D1*
X1627546Y1035550D1*
X1631182Y1040201D1*
X1635202Y1044525D1*
X1639575Y1048491D1*
X1644268Y1052072D1*
X1649249Y1055240D1*
X1654483Y1057974D1*
X1659929Y1060253D1*
X1665549Y1062060D1*
X1671302Y1063383D1*
X1677147Y1064213D1*
X1683042Y1064541D1*
X1688944Y1064367D1*
X1694808Y1063693D1*
X1700594Y1062522D1*
X1706261Y1060864D1*
X1711765Y1058730D1*
X1717068Y1056135D1*
X1722131Y1053098D1*
X1726919Y1049643D1*
X1731394Y1045793D1*
X1735525Y1041576D1*
X1739283Y1037024D1*
X1742642Y1032168D1*
X1745575Y1027043D1*
X1748060Y1021689D1*
X1750083Y1016142D1*
X1751626Y1010444D1*
X1752678Y1004635D1*
X1753235Y998757D1*
X1753316Y993996D1*
X1743475Y1370354D2*
X1878172D1*
X1878169Y1664483D1*
X1830382Y1712274D1*
X1824186Y1713778D1*
X1818125Y1716290D1*
X1812530Y1719718D1*
X1807542Y1723979D1*
X1803281Y1728967D1*
X1799853Y1734562D1*
X1797341Y1740623D1*
X1795810Y1747003D1*
X1795295Y1753543D1*
X1795810Y1760084D1*
X1797341Y1766463D1*
X1799853Y1772525D1*
X1803281Y1778119D1*
X1807542Y1783108D1*
X1812530Y1787369D1*
X1818125Y1790797D1*
X1824186Y1793308D1*
X1830566Y1794840D1*
X1837106Y1795354D1*
X1843647Y1794840D1*
X1850026Y1793308D1*
X1856088Y1790797D1*
X1861682Y1787369D1*
X1866671Y1783108D1*
X1870932Y1778119D1*
X1874360Y1772525D1*
X1876871Y1766463D1*
X1878365Y1760273D1*
X1937912Y1700584D1*
X1941042Y1696276D1*
X1943461Y1691530D1*
X1945106Y1686466D1*
X1945938Y1681206D1*
X1946043Y1660827D1*
X1945938Y1163381D1*
X1945106Y1158121D1*
X1943461Y1153056D1*
X1941042Y1148311D1*
X1937912Y1144003D1*
X1928388Y1134331D1*
X1926871Y1128123D1*
X1924360Y1122062D1*
X1920932Y1116467D1*
X1916671Y1111479D1*
X1911682Y1107218D1*
X1906088Y1103790D1*
X1900026Y1101278D1*
X1893647Y1099747D1*
X1887106Y1099232D1*
X1880566Y1099747D1*
X1874186Y1101278D1*
X1868125Y1103790D1*
X1862530Y1107218D1*
X1857542Y1111479D1*
X1853281Y1116467D1*
X1849853Y1122062D1*
X1847341Y1128123D1*
X1845810Y1134503D1*
X1845295Y1141043D1*
X1845810Y1147584D1*
X1847341Y1153963D1*
X1849853Y1160025D1*
X1853281Y1165619D1*
X1857542Y1170608D1*
X1862530Y1174869D1*
X1868125Y1178297D1*
X1873163Y1180430D1*
X1742294Y1180433D1*
Y1370354D1*
X1743475D1*
X1113096Y533465D2*
X1182374Y533564D1*
X1182180Y539465D1*
X1182592Y545353D1*
X1182706Y546218D1*
X1178186Y544937D1*
X1173753Y544055D1*
X1169265Y543524D1*
X1164749Y543346D1*
X1160234Y543524D1*
X1155745Y544055D1*
X1151312Y544937D1*
X1146963Y546164D1*
X1142723Y547728D1*
X1138618Y549619D1*
X1134675Y551828D1*
X1130917Y554340D1*
X1127367Y557138D1*
X1124049Y560205D1*
X1120982Y563524D1*
X1118184Y567073D1*
X1115672Y570831D1*
X1113463Y574774D1*
X1111572Y578879D1*
X1110008Y583119D1*
X1108781Y587469D1*
X1107899Y591902D1*
X1107367Y596390D1*
X1107190Y600906D1*
X1107367Y605421D1*
X1107899Y609909D1*
X1108781Y614343D1*
X1110008Y618692D1*
X1111572Y622932D1*
X1113463Y627037D1*
X1115672Y630980D1*
X1118184Y634738D1*
X1120982Y638287D1*
X1124049Y641606D1*
X1127367Y644673D1*
X1130917Y647471D1*
X1134675Y649983D1*
X1138618Y652192D1*
X1142723Y654083D1*
X1146963Y655647D1*
X1151312Y656874D1*
X1155745Y657756D1*
X1160234Y658287D1*
X1164749Y658465D1*
X1169265Y658287D1*
X1173753Y657756D1*
X1178186Y656874D1*
X1182535Y655647D1*
X1186776Y654083D1*
X1190881Y652192D1*
X1194824Y649983D1*
X1198581Y647471D1*
X1202131Y644673D1*
X1205450Y641606D1*
X1208517Y638287D1*
X1211315Y634738D1*
X1213827Y630980D1*
X1216035Y627037D1*
X1217927Y622932D1*
X1219491Y618692D1*
X1220718Y614343D1*
X1221600Y609909D1*
X1222131Y605421D1*
X1222308Y600906D1*
X1222131Y596390D1*
X1221739Y593076D1*
X1227251Y594592D1*
X1233071Y595575D1*
X1238962Y595955D1*
X1244860Y595731D1*
X1250705Y594904D1*
X1256434Y593483D1*
X1261988Y591483D1*
X1267307Y588924D1*
X1272337Y585833D1*
X1277024Y582245D1*
X1281318Y578194D1*
X1285175Y573726D1*
X1288554Y568886D1*
X1291419Y563726D1*
X1293740Y558298D1*
X1295495Y552661D1*
X1296661Y546875D1*
X1297230Y541000D1*
X1297180Y534861D1*
X1296514Y528995D1*
X1295253Y523228D1*
X1293407Y517622D1*
X1290996Y512234D1*
X1288047Y507121D1*
X1284589Y502336D1*
X1280659Y497932D1*
X1276299Y493953D1*
X1271554Y490441D1*
X1266475Y487433D1*
X1261114Y484962D1*
X1255529Y483054D1*
X1249777Y481726D1*
X1243919Y480995D1*
X1238017Y480867D1*
X1232134Y481346D1*
X1226331Y482424D1*
X1222310Y483545D1*
X1222441Y419291D1*
X2334177D1*
X2325115Y424332D1*
X2315255Y430825D1*
X2305941Y438084D1*
X2297236Y446062D1*
X2289193Y454707D1*
X2281865Y463967D1*
X2275298Y473780D1*
X2269534Y484085D1*
X2264609Y494818D1*
X2260554Y505907D1*
X2257395Y517285D1*
X2255154Y528878D1*
X2253843Y540613D1*
X2253470Y552415D1*
X2254038Y564209D1*
X2255545Y575920D1*
X2257980Y587474D1*
X2261328Y598798D1*
X2265567Y609819D1*
X2270669Y620467D1*
X2276605Y630675D1*
X2283335Y640377D1*
X2290816Y649513D1*
X2299001Y658024D1*
X2307837Y665854D1*
X2317270Y672957D1*
X2327239Y679286D1*
X2337680Y684801D1*
X2348528Y689466D1*
X2359713Y693252D1*
X2371163Y696135D1*
X2382806Y698097D1*
X2394570Y699126D1*
X2406377Y699214D1*
X2418154Y698361D1*
X2429825Y696572D1*
X2441318Y693860D1*
X2452558Y690240D1*
X2463472Y685738D1*
X2473995Y680379D1*
X2484056Y674199D1*
X2493594Y667238D1*
X2502547Y659538D1*
X2510857Y651151D1*
X2518474Y642127D1*
X2525348Y632526D1*
X2531434Y622408D1*
X2533475Y618504D1*
X2533465Y1743626D1*
X2530230Y1737644D1*
X2523975Y1727629D1*
X2516944Y1718143D1*
X2509177Y1709248D1*
X2500728Y1701000D1*
X2491648Y1693450D1*
X2481996Y1686650D1*
X2471833Y1680638D1*
X2461223Y1675455D1*
X2450234Y1671135D1*
X2438936Y1667703D1*
X2427400Y1665182D1*
X2415701Y1663588D1*
X2403911Y1662932D1*
X2392106Y1663217D1*
X2380362Y1664441D1*
X2368752Y1666596D1*
X2357352Y1669669D1*
X2346232Y1673642D1*
X2335465Y1678487D1*
X2325115Y1684175D1*
X2315255Y1690668D1*
X2305941Y1697927D1*
X2297236Y1705904D1*
X2289193Y1714550D1*
X2281865Y1723810D1*
X2275298Y1733622D1*
X2269534Y1743928D1*
X2264609Y1754660D1*
X2260554Y1765749D1*
X2257395Y1777127D1*
X2255154Y1788720D1*
X2253843Y1800455D1*
X2253470Y1812257D1*
X2254038Y1824051D1*
X2255545Y1835762D1*
X2257980Y1847316D1*
X2261328Y1858640D1*
X2265567Y1869661D1*
X2270669Y1880310D1*
X2276605Y1890517D1*
X2283335Y1900219D1*
X2290816Y1909356D1*
X2299001Y1917866D1*
X2307837Y1925697D1*
X2317270Y1932799D1*
X2327239Y1939129D1*
X2334239Y1942912D1*
X2074841Y1942913D1*
X2074824Y1822257D1*
X1462281D1*
Y1942928D1*
X1349176Y1942913D1*
X1054932Y1648765D1*
X1053286Y1647927D1*
X1051461Y1647638D1*
X419270D1*
X419291Y618579D1*
X423142Y625630D1*
X429479Y635593D1*
X436591Y645020D1*
X444429Y653849D1*
X452948Y662028D1*
X462089Y669500D1*
X471798Y676220D1*
X482012Y682147D1*
X492664Y687241D1*
X503689Y691470D1*
X515014Y694808D1*
X526571Y697232D1*
X538283Y698728D1*
X550079Y699287D1*
X561881Y698904D1*
X573614Y697583D1*
X585205Y695331D1*
X596580Y692161D1*
X607667Y688097D1*
X618394Y683163D1*
X628693Y677390D1*
X638501Y670814D1*
X647753Y663478D1*
X656392Y655428D1*
X664362Y646715D1*
X671613Y637395D1*
X678097Y627528D1*
X683776Y617175D1*
X688612Y606403D1*
X692573Y595280D1*
X695638Y583875D1*
X697783Y572265D1*
X698996Y560520D1*
X699291Y551181D1*
X698820Y539383D1*
X697412Y527659D1*
X695073Y516085D1*
X691820Y504734D1*
X687673Y493678D1*
X682659Y482988D1*
X676808Y472731D1*
X670160Y462972D1*
X662755Y453776D1*
X654642Y445197D1*
X645870Y437293D1*
X636496Y430112D1*
X626581Y423699D1*
X618505Y419289D1*
X1107168Y419291D1*
X1107190Y533465D1*
X1113096D1*
X817335Y553568D2*
X814617Y555385D1*
X810946Y558278D1*
X807514Y561451D1*
X804341Y564883D1*
X801448Y568554D1*
X798850Y572440D1*
X796567Y576518D1*
X794610Y580762D1*
X792992Y585148D1*
X791723Y589647D1*
X790811Y594231D1*
X790262Y598873D1*
X790079Y603543D1*
X790262Y608214D1*
X790811Y612856D1*
X791723Y617440D1*
X792992Y621938D1*
X794610Y626324D1*
X796567Y630568D1*
X798850Y634647D1*
X801448Y638533D1*
X804341Y642203D1*
X807514Y645635D1*
X810946Y648808D1*
X814617Y651702D1*
X817335Y653518D1*
X810946Y658278D1*
X807514Y661451D1*
X804341Y664883D1*
X801448Y668554D1*
X798850Y672440D1*
X796567Y676518D1*
X794610Y680762D1*
X792992Y685148D1*
X791723Y689647D1*
X790811Y694231D1*
X790262Y698873D1*
X790079Y703543D1*
X790262Y708214D1*
X790811Y712856D1*
X791723Y717440D1*
X792992Y721938D1*
X794610Y726324D1*
X796567Y730568D1*
X798850Y734647D1*
X801448Y738533D1*
X804341Y742203D1*
X807514Y745635D1*
X810946Y748808D1*
X814617Y751702D1*
X818503Y754299D1*
X822581Y756583D1*
X826825Y758539D1*
X831211Y760157D1*
X835710Y761427D1*
X840294Y762339D1*
X844936Y762887D1*
X849606Y763071D1*
X854277Y762887D1*
X858919Y762339D1*
X866402Y760609D1*
X867331Y764030D1*
X869369Y768950D1*
X872151Y773491D1*
X875609Y777541D1*
X902566Y804349D1*
X906874Y807479D1*
X911619Y809898D1*
X916684Y811543D1*
X921944Y812375D1*
X942323Y812480D1*
X948067D1*
X953165Y817596D1*
X953169Y1229133D1*
X949853Y1234562D1*
X947341Y1240623D1*
X945810Y1247003D1*
X945295Y1253543D1*
X945810Y1260084D1*
X947341Y1266463D1*
X949853Y1272525D1*
X953281Y1278119D1*
X957542Y1283108D1*
X962530Y1287369D1*
X968125Y1290797D1*
X974186Y1293308D1*
X980566Y1294840D1*
X987106Y1295354D1*
X993647Y1294840D1*
X1000026Y1293308D1*
X1006088Y1290797D1*
X1011682Y1287369D1*
X1016671Y1283108D1*
X1020932Y1278119D1*
X1024360Y1272525D1*
X1026871Y1266463D1*
X1028403Y1260084D1*
X1028917Y1253543D1*
X1028403Y1247003D1*
X1027870Y1244324D1*
X1033825Y1245226D1*
X1040387D1*
X1046867Y1244199D1*
X1053106Y1242172D1*
X1058953Y1239193D1*
X1064260Y1235337D1*
X1068900Y1230697D1*
X1072756Y1225390D1*
X1075735Y1219543D1*
X1077762Y1213304D1*
X1078789Y1206824D1*
Y1200262D1*
X1077870Y1194324D1*
X1083825Y1195226D1*
X1090387D1*
X1096867Y1194199D1*
X1103106Y1192172D1*
X1108953Y1189193D1*
X1114260Y1185337D1*
X1118900Y1180697D1*
X1122756Y1175390D1*
X1125735Y1169543D1*
X1127762Y1163304D1*
X1128789Y1156824D1*
Y1150262D1*
X1127762Y1143782D1*
X1125735Y1137543D1*
X1122756Y1131697D1*
X1121039Y1129127D1*
X1121083Y898602D1*
X1219665D1*
Y879921D1*
X1224724Y884811D1*
X1228274Y887609D1*
X1232031Y890121D1*
X1235975Y892329D1*
X1240080Y894220D1*
X1244320Y895785D1*
X1248669Y897012D1*
X1253102Y897894D1*
X1257591Y898425D1*
X1262106Y898602D1*
X1266622Y898425D1*
X1271110Y897894D1*
X1275543Y897012D1*
X1279892Y895785D1*
X1284133Y894220D1*
X1288238Y892329D1*
X1292181Y890121D1*
X1295938Y887609D1*
X1299488Y884811D1*
X1302807Y881744D1*
X1305874Y878425D1*
X1308672Y874875D1*
X1311184Y871118D1*
X1313392Y867175D1*
X1315283Y863070D1*
X1316848Y858829D1*
X1318075Y854480D1*
X1318957Y850047D1*
X1319488Y845559D1*
X1319665Y841043D1*
X1319488Y836528D1*
X1318957Y832039D1*
X1318075Y827606D1*
X1316848Y823257D1*
X1315283Y819017D1*
X1313392Y814912D1*
X1311184Y810969D1*
X1308672Y807211D1*
X1305874Y803661D1*
X1302807Y800343D1*
X1299488Y797276D1*
X1295938Y794478D1*
X1292181Y791966D1*
X1288238Y789757D1*
X1284133Y787866D1*
X1279892Y786302D1*
X1275543Y785075D1*
X1271110Y784193D1*
X1266622Y783661D1*
X1262106Y783484D1*
X1257591Y783661D1*
X1253102Y784193D1*
X1248669Y785075D1*
X1244320Y786302D1*
X1240080Y787866D1*
X1235975Y789757D1*
X1232031Y791966D1*
X1228274Y794478D1*
X1224724Y797276D1*
X1219668Y802223D1*
X1219665Y783484D1*
X1121039D1*
X1120938Y650881D1*
X1120106Y645621D1*
X1118461Y640556D1*
X1116042Y635811D1*
X1112912Y631503D1*
X1098576Y617018D1*
X1059147Y577738D1*
X1054839Y574608D1*
X1050093Y572189D1*
X1045029Y570543D1*
X1039769Y569711D1*
X1019390Y569606D1*
X998513D1*
X994871Y564883D1*
X991698Y561451D1*
X988266Y558278D1*
X984596Y555385D1*
X981878Y553568D1*
X988266Y548808D1*
X991698Y545635D1*
X994871Y542203D1*
X997765Y538533D1*
X1000362Y534647D1*
X1002646Y530568D1*
X1004602Y526324D1*
X1006220Y521938D1*
X1007490Y517440D1*
X1008400Y512856D1*
X1008950Y508214D1*
X1009134Y503543D1*
X1008950Y498873D1*
X1008400Y494231D1*
X1007490Y489647D1*
X1006220Y485148D1*
X1004602Y480762D1*
X1002646Y476518D1*
X1000362Y472440D1*
X997765Y468554D1*
X994871Y464883D1*
X991698Y461451D1*
X988266Y458278D1*
X984596Y455385D1*
X980709Y452787D1*
X976631Y450504D1*
X972386Y448547D1*
X968001Y446929D1*
X963503Y445660D1*
X958919Y444748D1*
X954277Y444199D1*
X949606Y444016D1*
X944936Y444199D1*
X940294Y444748D1*
X935710Y445660D1*
X931211Y446929D1*
X926825Y448547D1*
X922581Y450504D1*
X918503Y452787D1*
X914617Y455385D1*
X910946Y458278D1*
X907514Y461451D1*
X904341Y464883D1*
X901448Y468554D1*
X899549Y471151D1*
X896094Y466364D1*
X892184Y461941D1*
X887854Y457929D1*
X883148Y454365D1*
X878112Y451285D1*
X872797Y448719D1*
X867252Y446692D1*
X861534Y445223D1*
X855699Y444328D1*
X849804Y444016D1*
X843908Y444289D1*
X838067Y445144D1*
X832340Y446575D1*
X826782Y448566D1*
X821449Y451096D1*
X816394Y454143D1*
X811664Y457675D1*
X807307Y461659D1*
X803367Y466054D1*
X799881Y470818D1*
X796885Y475904D1*
X794406Y481261D1*
X792471Y486839D1*
X791097Y492579D1*
X790299Y498428D1*
X790084Y504327D1*
X790454Y510219D1*
X791406Y516045D1*
X792930Y521748D1*
X795012Y527272D1*
X797630Y532562D1*
X800760Y537567D1*
X804370Y542238D1*
X808425Y546528D1*
X812885Y550395D1*
X817307Y553543D1*
X655025Y1549181D2*
X654512Y1544846D1*
X653661Y1540566D1*
X652476Y1536365D1*
X650966Y1532270D1*
X649138Y1528306D1*
X647005Y1524497D1*
X644580Y1520867D1*
X641878Y1517440D1*
X638915Y1514235D1*
X635710Y1511272D1*
X632282Y1508570D1*
X628652Y1506144D1*
X624844Y1504012D1*
X620879Y1502184D1*
X616785Y1500673D1*
X612584Y1499488D1*
X608303Y1498638D1*
X603969Y1498125D1*
X599606Y1497953D1*
X595244Y1498125D1*
X590909Y1498638D1*
X586629Y1499488D1*
X582428Y1500673D1*
X578333Y1502184D1*
X574369Y1504012D1*
X570560Y1506144D1*
X566930Y1508570D1*
X563503Y1511272D1*
X560298Y1514235D1*
X557335Y1517440D1*
X555192Y1520159D1*
X555197Y1497953D1*
X444016D1*
Y1609134D1*
X555197D1*
Y1586983D1*
X560298Y1592852D1*
X563503Y1595815D1*
X566930Y1598517D1*
X570560Y1600942D1*
X574369Y1603075D1*
X578333Y1604903D1*
X582428Y1606413D1*
X586629Y1607598D1*
X590909Y1608449D1*
X595244Y1608962D1*
X599606Y1609134D1*
X603969Y1608962D1*
X608303Y1608449D1*
X612584Y1607598D1*
X616785Y1606413D1*
X620879Y1604903D1*
X624844Y1603075D1*
X628652Y1600942D1*
X632282Y1598517D1*
X635710Y1595815D1*
X638915Y1592852D1*
X641878Y1589647D1*
X644580Y1586219D1*
X647005Y1582589D1*
X649138Y1578781D1*
X650966Y1574816D1*
X652476Y1570722D1*
X653661Y1566521D1*
X654512Y1562240D1*
X655025Y1557906D1*
X655197Y1553543D1*
X655025Y1549181D1*
Y1274181D2*
X654512Y1269846D1*
X653661Y1265566D1*
X652476Y1261365D1*
X650966Y1257270D1*
X649138Y1253306D1*
X647005Y1249497D1*
X644580Y1245867D1*
X641878Y1242440D1*
X638915Y1239235D1*
X635710Y1236272D1*
X632282Y1233570D1*
X628652Y1231144D1*
X624844Y1229012D1*
X620879Y1227184D1*
X616785Y1225673D1*
X612584Y1224488D1*
X608303Y1223638D1*
X603969Y1223125D1*
X599606Y1222953D1*
X595244Y1223125D1*
X590909Y1223638D1*
X586629Y1224488D1*
X582428Y1225673D1*
X578333Y1227184D1*
X574369Y1229012D1*
X570560Y1231144D1*
X566930Y1233570D1*
X563503Y1236272D1*
X560298Y1239235D1*
X557335Y1242440D1*
X555192Y1245159D1*
X555197Y1222953D1*
X444016D1*
Y1334134D1*
X555197D1*
Y1311983D1*
X560298Y1317852D1*
X563503Y1320815D1*
X566930Y1323517D1*
X570560Y1325942D1*
X574369Y1328075D1*
X578333Y1329903D1*
X582428Y1331413D1*
X586629Y1332598D1*
X590909Y1333449D1*
X595244Y1333962D1*
X599606Y1334134D1*
X603969Y1333962D1*
X608303Y1333449D1*
X612584Y1332598D1*
X616785Y1331413D1*
X620879Y1329903D1*
X624844Y1328075D1*
X628652Y1325942D1*
X632282Y1323517D1*
X635710Y1320815D1*
X638915Y1317852D1*
X641878Y1314647D1*
X644580Y1311219D1*
X647005Y1307589D1*
X649138Y1303781D1*
X650966Y1299816D1*
X652476Y1295722D1*
X653661Y1291521D1*
X654512Y1287240D1*
X655025Y1282906D1*
X655197Y1278543D1*
X655025Y1274181D1*
Y986681D2*
X654512Y982346D1*
X653661Y978066D1*
X652476Y973865D1*
X650966Y969770D1*
X649138Y965806D1*
X647005Y961997D1*
X644580Y958367D1*
X641878Y954940D1*
X638915Y951735D1*
X635710Y948772D1*
X632282Y946070D1*
X628652Y943644D1*
X624844Y941512D1*
X620879Y939684D1*
X616785Y938173D1*
X612584Y936988D1*
X608303Y936138D1*
X603969Y935625D1*
X599606Y935453D1*
X595244Y935625D1*
X590909Y936138D1*
X586629Y936988D1*
X582428Y938173D1*
X578333Y939684D1*
X574369Y941512D1*
X570560Y943644D1*
X566930Y946070D1*
X563503Y948772D1*
X560298Y951735D1*
X557335Y954940D1*
X555192Y957659D1*
X555197Y935453D1*
X444016D1*
Y1046634D1*
X555197D1*
Y1024483D1*
X560298Y1030352D1*
X563503Y1033315D1*
X566930Y1036017D1*
X570560Y1038442D1*
X574369Y1040575D1*
X578333Y1042403D1*
X582428Y1043913D1*
X586629Y1045098D1*
X590909Y1045949D1*
X595244Y1046462D1*
X599606Y1046634D1*
X603969Y1046462D1*
X608303Y1045949D1*
X612584Y1045098D1*
X616785Y1043913D1*
X620879Y1042403D1*
X624844Y1040575D1*
X628652Y1038442D1*
X632282Y1036017D1*
X635710Y1033315D1*
X638915Y1030352D1*
X641878Y1027147D1*
X644580Y1023719D1*
X647005Y1020089D1*
X649138Y1016281D1*
X650966Y1012316D1*
X652476Y1008222D1*
X653661Y1004021D1*
X654512Y999740D1*
X655025Y995406D1*
X655197Y991043D1*
X655025Y986681D1*
X1493228Y561102D2*
X1510728D1*
X1505839Y566161D1*
X1503041Y569711D1*
X1500529Y573469D1*
X1498320Y577412D1*
X1496429Y581516D1*
X1494865Y585756D1*
X1493638Y590106D1*
X1492756Y594539D1*
X1492224Y599028D1*
X1492047Y603543D1*
X1492224Y608059D1*
X1492756Y612547D1*
X1493638Y616980D1*
X1494865Y621329D1*
X1496429Y625570D1*
X1498320Y629675D1*
X1500529Y633618D1*
X1503041Y637375D1*
X1505839Y640925D1*
X1508906Y644244D1*
X1512224Y647311D1*
X1515774Y650109D1*
X1519531Y652621D1*
X1523475Y654828D1*
X1527580Y656720D1*
X1531820Y658285D1*
X1536169Y659512D1*
X1540602Y660394D1*
X1545091Y660925D1*
X1549606Y661102D1*
X1554122Y660925D1*
X1558610Y660394D1*
X1563043Y659512D1*
X1567392Y658285D1*
X1571633Y656720D1*
X1575738Y654828D1*
X1579681Y652621D1*
X1583438Y650109D1*
X1586988Y647311D1*
X1590307Y644244D1*
X1593374Y640925D1*
X1596172Y637375D1*
X1598684Y633618D1*
X1600892Y629675D1*
X1602783Y625570D1*
X1604348Y621329D1*
X1605575Y616980D1*
X1606457Y612547D1*
X1606988Y608059D1*
X1607165Y603543D1*
X1606988Y599028D1*
X1606457Y594539D1*
X1605575Y590106D1*
X1604348Y585756D1*
X1602783Y581516D1*
X1600892Y577412D1*
X1598684Y573469D1*
X1596172Y569711D1*
X1593374Y566161D1*
X1588427Y561105D1*
X1607165Y561102D1*
Y445984D1*
X1492047D1*
Y561102D1*
X1493228D1*
X2330236Y1553819D2*
X2474882D1*
Y1403268D1*
X2404362D1*
X2302538Y1301438D1*
X2302539Y1147110D1*
X2324328Y1147126D1*
X2324331Y1156969D1*
X2474882D1*
Y1006417D1*
X2324331D1*
Y1016268D1*
X2302558Y1016260D1*
X2302539Y716043D1*
X2302337Y710909D1*
X2301734Y705807D1*
X2300731Y700768D1*
X2299337Y695823D1*
X2297559Y691003D1*
X2295408Y686337D1*
X2292898Y681854D1*
X2290043Y677583D1*
X2286862Y673547D1*
X2279198Y665600D1*
X2124873Y511273D1*
X2124882Y465768D1*
X1974331D1*
Y616319D1*
X2044850D1*
X2171665Y743138D1*
X2171673Y1328543D1*
X2171875Y1333677D1*
X2172479Y1338780D1*
X2173482Y1343819D1*
X2174875Y1348764D1*
X2176654Y1353584D1*
X2178804Y1358249D1*
X2181315Y1362732D1*
X2184169Y1367004D1*
X2187350Y1371039D1*
X2195014Y1378987D1*
X2324318Y1508291D1*
X2324331Y1553819D1*
X2330236D1*
X2474651Y1275794D2*
X2473957Y1269930D1*
X2472807Y1264139D1*
X2471206Y1258457D1*
X2469164Y1252917D1*
X2466696Y1247554D1*
X2463814Y1242402D1*
X2460537Y1237490D1*
X2456885Y1232850D1*
X2452881Y1228512D1*
X2448550Y1224500D1*
X2443916Y1220840D1*
X2439010Y1217555D1*
X2433864Y1214664D1*
X2428505Y1212185D1*
X2422969Y1210134D1*
X2417289Y1208524D1*
X2411500Y1207362D1*
X2405638Y1206659D1*
X2399739Y1206417D1*
X2393839Y1206639D1*
X2387975Y1207322D1*
X2382181Y1208462D1*
X2376496Y1210052D1*
X2370953Y1212084D1*
X2365585Y1214543D1*
X2360428Y1217417D1*
X2355510Y1220685D1*
X2350865Y1224328D1*
X2346518Y1228324D1*
X2342500Y1232650D1*
X2338832Y1237276D1*
X2335538Y1242176D1*
X2332638Y1247318D1*
X2330150Y1252672D1*
X2328089Y1258205D1*
X2326469Y1263882D1*
X2325297Y1269669D1*
X2324584Y1275530D1*
X2324331Y1281428D1*
X2324542Y1287328D1*
X2325214Y1293194D1*
X2326345Y1298988D1*
X2327925Y1304677D1*
X2329948Y1310224D1*
X2332398Y1315596D1*
X2335261Y1320759D1*
X2338521Y1325681D1*
X2342156Y1330333D1*
X2346144Y1334686D1*
X2350462Y1338713D1*
X2355083Y1342390D1*
X2359976Y1345692D1*
X2365114Y1348601D1*
X2370463Y1351098D1*
X2375992Y1353169D1*
X2381667Y1354799D1*
X2387451Y1355980D1*
X2393311Y1356705D1*
X2399209Y1356967D1*
X2405110Y1356766D1*
X2410976Y1356105D1*
X2416773Y1354984D1*
X2422465Y1353413D1*
X2428014Y1351402D1*
X2433391Y1348961D1*
X2438559Y1346106D1*
X2443487Y1342856D1*
X2448146Y1339228D1*
X2452505Y1335248D1*
X2456539Y1330937D1*
X2460224Y1326323D1*
X2463535Y1321436D1*
X2466454Y1316303D1*
X2468961Y1310958D1*
X2471041Y1305432D1*
X2472681Y1299761D1*
X2473873Y1293978D1*
X2474608Y1288121D1*
X2474882Y1281693D1*
X2474651Y1275794D1*
Y878944D2*
X2473957Y873080D1*
X2472807Y867289D1*
X2471206Y861606D1*
X2469164Y856067D1*
X2466696Y850703D1*
X2463814Y845551D1*
X2460537Y840639D1*
X2456885Y836000D1*
X2452881Y831661D1*
X2448550Y827650D1*
X2443916Y823990D1*
X2439010Y820705D1*
X2433864Y817814D1*
X2428505Y815335D1*
X2422969Y813283D1*
X2417289Y811673D1*
X2411500Y810512D1*
X2405638Y809808D1*
X2399739Y809567D1*
X2393839Y809789D1*
X2387975Y810471D1*
X2382181Y811612D1*
X2376496Y813202D1*
X2370953Y815234D1*
X2365585Y817693D1*
X2360428Y820567D1*
X2355510Y823835D1*
X2350865Y827478D1*
X2346518Y831474D1*
X2342500Y835799D1*
X2338832Y840425D1*
X2335538Y845325D1*
X2332638Y850467D1*
X2330150Y855822D1*
X2328089Y861354D1*
X2326469Y867031D1*
X2325297Y872819D1*
X2324584Y878680D1*
X2324331Y884577D1*
X2324542Y890478D1*
X2325214Y896344D1*
X2326345Y902138D1*
X2327925Y907827D1*
X2329948Y913374D1*
X2332398Y918745D1*
X2335261Y923908D1*
X2338521Y928831D1*
X2342156Y933483D1*
X2346144Y937836D1*
X2350462Y941862D1*
X2355083Y945539D1*
X2359976Y948841D1*
X2365114Y951751D1*
X2370463Y954248D1*
X2375992Y956319D1*
X2381667Y957949D1*
X2387451Y959130D1*
X2393311Y959854D1*
X2399209Y960117D1*
X2405110Y959916D1*
X2410976Y959255D1*
X2416773Y958134D1*
X2422465Y956563D1*
X2428014Y954551D1*
X2433391Y952110D1*
X2438559Y949256D1*
X2443487Y946005D1*
X2448146Y942378D1*
X2452505Y938398D1*
X2456539Y934087D1*
X2460224Y929472D1*
X2463535Y924585D1*
X2466454Y919453D1*
X2468961Y914108D1*
X2471041Y908581D1*
X2472681Y902911D1*
X2473873Y897127D1*
X2474608Y891270D1*
X2474882Y884843D1*
X2474651Y878944D1*
X1928022Y539862D2*
X1927577Y532793D1*
X1926471Y525795D1*
X1924711Y518933D1*
X1922314Y512268D1*
X1919301Y505856D1*
X1915698Y499756D1*
X1911539Y494022D1*
X1906858Y488705D1*
X1901699Y483850D1*
X1896106Y479503D1*
X1890129Y475701D1*
X1883822Y472476D1*
X1877238Y469860D1*
X1870438Y467874D1*
X1863482Y466535D1*
X1856430Y465857D1*
X1849346Y465845D1*
X1842293Y466499D1*
X1835331Y467812D1*
X1828525Y469774D1*
X1821932Y472367D1*
X1815613Y475570D1*
X1809623Y479350D1*
X1804014Y483678D1*
X1798837Y488514D1*
X1794139Y493816D1*
X1789959Y499535D1*
X1786335Y505622D1*
X1783299Y512022D1*
X1780879Y518680D1*
X1779094Y525535D1*
X1777963Y532529D1*
X1777495Y539597D1*
X1777692Y546678D1*
X1778554Y553710D1*
X1780073Y560630D1*
X1782236Y567375D1*
X1785024Y573887D1*
X1788411Y580109D1*
X1792369Y585984D1*
X1796860Y591462D1*
X1801848Y596493D1*
X1807285Y601034D1*
X1813126Y605042D1*
X1819318Y608484D1*
X1825806Y611329D1*
X1832531Y613551D1*
X1839437Y615131D1*
X1846461Y616055D1*
X1853539Y616315D1*
X1860612Y615908D1*
X1867615Y614837D1*
X1874486Y613114D1*
X1881164Y610752D1*
X1887592Y607773D1*
X1893710Y604203D1*
X1899466Y600073D1*
X1904808Y595421D1*
X1909689Y590287D1*
X1914067Y584718D1*
X1917900Y578760D1*
X1921157Y572470D1*
X1923808Y565900D1*
X1925831Y559112D1*
X1927206Y552161D1*
X1927921Y545114D1*
X1928022Y539862D1*
X1585531Y1635390D2*
D18*
Y1566043D1*
X1683957Y1064524D2*
Y925831D1*
X1614610Y995177D2*
X1753303D1*
X1355118Y1374268D2*
Y1184394D1*
Y1279331D2*
X1430370D1*
X1817570Y1370331D2*
Y1180457D1*
X1742318Y1275394D2*
X1817570D1*
X1239730Y595937D2*
Y480866D1*
X1182194Y538402D2*
X1297265D1*
X849606Y503543D2*
Y444039D1*
X790101Y503543D2*
X849606D1*
X499606Y1609110D2*
Y1497976D1*
X444039Y1553543D2*
X499606D1*
Y1334110D2*
Y1222976D1*
X444039Y1278543D2*
X499606D1*
Y1046610D2*
Y935475D1*
X444039Y991043D2*
X499606D1*
X1549606Y503543D2*
Y446007D1*
X1492071Y503543D2*
X1607143D1*
X1162106Y898579D2*
Y783507D1*
X1852756Y616295D2*
Y465791D1*
X1777504Y541043D2*
X1928008D1*
D22*
X1487106Y1566043D3*
X1685925D3*
X1585531D3*
X1487106Y995177D3*
X1683957D3*
D23*
X1355118Y1279331D3*
X1817570Y1275394D3*
D25*
X1549606Y503550D3*
D26*
Y603550D3*
D25*
X1162106Y841043D3*
D26*
X1262106D3*
D30*
X599606Y1553543D3*
D31*
X499606D3*
D30*
X599606Y1278543D3*
D31*
X499606D3*
D30*
X599606Y991043D3*
D31*
X499606D3*
D32*
X2049606Y541043D3*
D33*
X1852756D3*
D34*
X949606Y703543D3*
D35*
X849606Y603543D3*
Y503543D3*
Y703543D3*
X949606Y603543D3*
Y503543D3*
D32*
X2399606Y1478543D3*
D33*
Y1281693D3*
D32*
Y1081693D3*
D33*
Y884843D3*
D37*
X2401575Y1811024D3*
X551181Y551181D3*
X2401575D3*
D25*
X1164749Y475906D3*
D26*
X1239730Y538402D3*
X1164749Y600906D3*
X1495894Y1921795D2*
D80*
Y1924647D1*
X1498746Y1930417D1*
X1501598Y1933269D1*
X1507368Y1936121D1*
X1518842D1*
X1524546Y1933269D1*
X1527397Y1930417D1*
X1530316Y1924647D1*
Y1918944D1*
X1527397Y1913173D1*
X1521694Y1904618D1*
X1492976Y1875900D1*
X1533168D1*
X1594739Y1921862D2*
X1591887Y1927566D1*
X1586117Y1933336D1*
X1580413Y1936188D1*
X1568939D1*
X1563169Y1933336D1*
X1557465Y1927566D1*
X1554547Y1921862D1*
X1551695Y1913240D1*
Y1898848D1*
X1554547Y1890292D1*
X1557465Y1884522D1*
X1563169Y1878818D1*
X1568939Y1875900D1*
X1580413D1*
X1586117Y1878818D1*
X1591887Y1884522D1*
X1594739Y1890292D1*
X1613266Y1936188D2*
Y1875900D1*
Y1904618D2*
X1621888Y1913240D1*
X1627658Y1916092D1*
X1636280D1*
X1641984Y1913240D1*
X1644836Y1904618D1*
Y1875900D1*
X1721684Y1936188D2*
Y1875900D1*
X1741780D1*
X1750402Y1878818D1*
X1756172Y1884522D1*
X1759024Y1890292D1*
X1761876Y1898848D1*
Y1913240D1*
X1759024Y1921862D1*
X1756172Y1927566D1*
X1750402Y1933336D1*
X1741780Y1936188D1*
X1721684D1*
X1780403D2*
X1783255Y1933336D1*
X1786173Y1936188D1*
X1783255Y1939106D1*
X1780403Y1936188D1*
X1783255Y1916092D2*
Y1875900D1*
X1804700Y1916092D2*
Y1875900D1*
Y1904618D2*
X1813322Y1913240D1*
X1819092Y1916092D1*
X1827648D1*
X1833418Y1913240D1*
X1836270Y1904618D1*
Y1875900D1*
Y1904618D2*
X1844892Y1913240D1*
X1850662Y1916092D1*
X1859218D1*
X1864988Y1913240D1*
X1867907Y1904618D1*
Y1875900D1*
X1886434Y1916092D2*
Y1875900D1*
Y1904618D2*
X1895056Y1913240D1*
X1900826Y1916092D1*
X1909382D1*
X1915152Y1913240D1*
X1918004Y1904618D1*
Y1875900D1*
Y1904618D2*
X1926626Y1913240D1*
X1932396Y1916092D1*
X1940951D1*
X1946722Y1913240D1*
X1949640Y1904618D1*
Y1875900D1*
X1968167Y1898848D2*
X2002589D1*
Y1904618D1*
X1999737Y1910388D1*
X1996885Y1913240D1*
X1991115Y1916092D1*
X1982493D1*
X1976789Y1913240D1*
X1971019Y1907470D1*
X1968167Y1898848D1*
Y1893144D1*
X1971019Y1884522D1*
X1976789Y1878818D1*
X1982493Y1875900D1*
X1991115D1*
X1996885Y1878818D1*
X2002589Y1884522D1*
X2021116Y1916092D2*
Y1875900D1*
Y1898848D2*
X2024034Y1907470D1*
X2029738Y1913240D1*
X2035508Y1916092D1*
X2044130D1*
M02*
